<?xml version="1.0" encoding="utf-8"?>
<!-- Generator: Adobe Illustrator 19.0.0, SVG Export Plug-In . SVG Version: 6.00 Build 0)  -->
<svg version="1.1" id="Layer_1" xmlns="http://www.w3.org/2000/svg" xmlns:xlink="http://www.w3.org/1999/xlink" x="0px" y="0px"
	 viewBox="0 0 100 100" style="enable-background:new 0 0 100 100;" xml:space="preserve">
<g>
	<path id="XMLID_2_" d="M97.9,100H2.1C0.9,100,0,99.1,0,97.9c0-0.4,0.1-9.2,4.4-17.8c3.1-6.1,13.5-10,28-15.3
		c1.7-0.6,3.4-1.2,5.1-1.9v-10c-1.8-1.6-5.7-5.6-6.2-12.2c-0.9-0.8-1.7-2.2-2.1-4c-0.7-3-0.3-6.5,1.8-8.6c-0.1-0.2-0.1-0.4-0.2-0.7
		c-1.4-4.7-4-13.3-0.4-18.2c1.3-1.8,3.2-2.8,5.7-3.1C38.6,1.4,47-0.1,53.8,0c7.9,0.2,17.7,2.9,19,9.8c1.2,5.9-1.8,13.4-3.4,17.4
		c-0.1,0.4-0.3,0.7-0.4,1c2.1,2.1,2.4,5.6,1.7,8.5c-0.4,1.8-1.2,3.2-2.1,4c-0.5,6.6-4.4,10.7-6.2,12.2v10c1.8,0.7,3.5,1.3,5.1,1.9
		c14.5,5.3,24.9,9.2,28,15.3c4.3,8.7,4.4,17.5,4.4,17.8C100,99.1,99.1,100,97.9,100z M4.3,95.8h91.4c-0.3-2.9-1.1-8.5-3.8-13.9
		c-2.3-4.6-13.2-8.6-25.7-13.2c-2.1-0.8-4.3-1.6-6.5-2.4c-0.8-0.3-1.4-1.1-1.4-1.9V51.8c0-0.7,0.3-1.3,0.9-1.7
		c0.2-0.1,5.3-3.7,5.3-10.8c0-1,0.7-1.8,1.5-2c0.4-0.6,1.1-2.6,0.8-4.4c-0.2-1.1-0.6-1.8-1.2-2.1c-0.7-0.4-1.2-1.1-1.2-1.9
		c0-0.7,0.3-1.5,1-3.3c1.4-3.6,4.1-10.4,3.2-15c-0.7-3.6-6.9-6.2-15-6.4c-8-0.1-13.7,2.1-14.2,4.4c-0.2,0.9-1.1,1.6-2,1.6
		c-1.8,0-3.1,0.5-3.8,1.5c-2.4,3.2,0,11.1,1.1,14.5c0.5,1.6,0.7,2.2,0.7,2.8c0,0.8-0.4,1.5-1.2,1.9c-0.6,0.3-1,1-1.2,2.1
		c-0.3,1.9,0.4,3.8,0.8,4.4c0.9,0.2,1.5,1,1.5,2c0,7.1,5.3,10.7,5.3,10.8c0.6,0.4,0.9,1,0.9,1.7v12.5c0,0.9-0.5,1.6-1.4,1.9
		c-2.2,0.8-4.4,1.6-6.5,2.4c-12.5,4.6-23.4,8.6-25.7,13.2C5.4,87.3,4.6,92.9,4.3,95.8z"/>
</g>
</svg>
