<?xml version="1.0" encoding="utf-8"?>
<!-- Generator: Adobe Illustrator 19.0.0, SVG Export Plug-In . SVG Version: 6.00 Build 0)  -->
<svg version="1.1" id="Layer_1" xmlns="http://www.w3.org/2000/svg" xmlns:xlink="http://www.w3.org/1999/xlink" x="0px" y="0px"
	 viewBox="0 0 100 100" style="enable-background:new 0 0 100 100;" xml:space="preserve">
<g>
	<path id="XMLID_9_" d="M25,70.8h58.3c1.2,0,2.1-0.9,2.1-2.1s-0.9-2.1-2.1-2.1H25c-1.1,0-2.1-0.9-2.1-2.1s0.9-2.1,2.1-2.1h60.2
		c3.7,0,6.9-2.4,8-5.9l6.4-20.7c0.8-2.5,0.3-5.3-1.2-7.4c-1.6-2.1-4.1-3.4-6.7-3.4H20.4c-1,0-1.9-0.8-2.1-1.8L16.9,12
		c-0.3-2.1-2-3.7-4.1-3.7H2.1C0.9,8.3,0,9.2,0,10.4s0.9,2.1,2.1,2.1h10.6l1.4,11.2c0.4,3.1,3.1,5.5,6.2,5.5h71.4
		c1.3,0,2.6,0.6,3.4,1.7c0.8,1.1,1,2.5,0.6,3.7l-6.5,20.8c-0.5,1.7-2.1,2.9-4,2.9H25c-3.4,0-6.3,2.8-6.3,6.3
		C18.7,68.1,21.6,70.8,25,70.8z"/>
	<path id="XMLID_8_" d="M20.8,56.3c0.1,0,0.2,0,0.2,0c1.1-0.1,2-1.2,1.8-2.3l-2.1-18.8c-0.1-1.1-1.1-2-2.3-1.8
		c-1.1,0.1-2,1.2-1.8,2.3l2.1,18.8C18.9,55.5,19.8,56.3,20.8,56.3z"/>
	<path id="XMLID_5_" d="M75,91.7c4.6,0,8.3-3.7,8.3-8.3c0-4.6-3.7-8.3-8.3-8.3c-4.6,0-8.3,3.7-8.3,8.3C66.7,87.9,70.4,91.7,75,91.7z
		 M75,79.2c2.3,0,4.2,1.9,4.2,4.2s-1.9,4.2-4.2,4.2c-2.3,0-4.2-1.9-4.2-4.2S72.7,79.2,75,79.2z"/>
	<path id="XMLID_2_" d="M29.2,91.7c4.6,0,8.3-3.7,8.3-8.3c0-4.6-3.7-8.3-8.3-8.3s-8.3,3.7-8.3,8.3C20.8,87.9,24.6,91.7,29.2,91.7z
		 M29.2,79.2c2.3,0,4.2,1.9,4.2,4.2s-1.9,4.2-4.2,4.2S25,85.7,25,83.4S26.9,79.2,29.2,79.2z"/>
</g>
</svg>
