<?xml version="1.0" encoding="utf-8"?>
<!-- Generator: Adobe Illustrator 19.0.0, SVG Export Plug-In . SVG Version: 6.00 Build 0)  -->
<svg version="1.1" id="Layer_1" xmlns="http://www.w3.org/2000/svg" xmlns:xlink="http://www.w3.org/1999/xlink" x="0px" y="0px"
	 viewBox="0 0 100 100" style="enable-background:new 0 0 100 100;" xml:space="preserve">
<g id="XMLID_1_">
	<path id="XMLID_10_" d="M64.4,72.1c0.6-0.2,1-0.7,1.2-1.3l2.1-6.9l7.2,0.7c0.6,0.1,1.2-0.2,1.7-0.6c0.4-0.4,0.7-1,0.6-1.7l-0.7-7.2
		l6.9-2.1c0.6-0.2,1.1-0.6,1.3-1.2s0.2-1.2-0.1-1.8l-3.3-6.4l5.5-4.6c0.5-0.4,0.7-1,0.7-1.6s-0.3-1.2-0.7-1.6l-5.5-4.6l3.3-6.4
		c0.3-0.5,0.3-1.2,0.1-1.8s-0.7-1-1.3-1.2l-6.9-2.1l0.7-7.2c0.1-0.6-0.2-1.2-0.6-1.7c-0.4-0.4-1-0.7-1.7-0.6L67.7,11l-2.1-6.9
		c-0.2-0.6-0.6-1.1-1.2-1.3c-0.6-0.2-1.2-0.2-1.8,0.1l-6.4,3.3l-4.6-5.5c-0.8-0.9-2.4-0.9-3.2,0l-4.6,5.5l-6.4-3.3
		c-0.5-0.3-1.2-0.3-1.8-0.1c-0.6,0.2-1,0.7-1.2,1.3L32.3,11l-7.2-0.7c-0.6-0.1-1.2,0.2-1.7,0.6c-0.4,0.4-0.7,1-0.6,1.7l0.7,7.2
		l-6.9,2.1c-0.6,0.2-1.1,0.6-1.3,1.2s-0.2,1.2,0.1,1.8l3.3,6.4l-5.5,4.6c-0.5,0.4-0.8,1-0.8,1.6s0.3,1.2,0.7,1.6l5.5,4.6l-3.3,6.4
		c-0.3,0.5-0.3,1.2-0.1,1.8s0.7,1,1.3,1.2l6.9,2.1l-0.7,7.2C22.8,63,23,63.6,23.5,64c0.4,0.4,1.1,0.6,1.7,0.6l7.2-0.7l2.1,6.9
		c0.2,0.6,0.6,1.1,1.2,1.3s1.2,0.2,1.8-0.1l6.4-3.3l4.6,5.5c0.4,0.5,1,0.7,1.6,0.7c0.6,0,1.2-0.3,1.6-0.7l4.6-5.5l6.4,3.3
		C63.1,72.3,63.8,72.4,64.4,72.1z M62.3,67.2l-5.6-3c-0.9-0.5-1.9-0.2-2.6,0.5L50,69.7l-4.1-4.9c-0.4-0.5-1-0.7-1.6-0.7
		c-0.3,0-0.7,0.1-1,0.2l-5.7,3l-1.9-6.1c-0.3-0.9-1.2-1.5-2.2-1.5l-6.4,0.6l0.6-6.4c0.1-1-0.5-1.9-1.5-2.2l-6.1-1.9l3-5.7
		c0.5-0.9,0.2-1.9-0.5-2.6l-4.9-4.1l4.9-4.1c0.8-0.6,1-1.7,0.5-2.6l-3-5.7l6.1-1.9c0.9-0.3,1.5-1.2,1.5-2.2l-0.6-6.4l6.4,0.6
		c1,0.1,1.9-0.5,2.2-1.5l1.9-6.1l5.7,3c0.9,0.5,1.9,0.2,2.6-0.5L50,5.3l4.1,4.9c0.6,0.8,1.7,1,2.6,0.5l5.6-3l1.9,6.1
		c0.3,0.9,1.2,1.5,2.2,1.5l6.4-0.6l-0.6,6.4c-0.1,1,0.5,1.9,1.5,2.2l6.1,1.9l-3,5.7c-0.5,0.9-0.2,1.9,0.5,2.6l4.9,4.1l-4.9,4.1
		c-0.8,0.6-1,1.7-0.5,2.6l3,5.7l-6.1,1.9c-0.9,0.3-1.5,1.2-1.5,2.2l0.6,6.4l-6.4-0.6c-1-0.1-1.9,0.5-2.2,1.5L62.3,67.2z"/>
	<path id="XMLID_11_" d="M99.1,84.3L85,59.9L81.4,62l11.9,20.5l-11.7-2c-1-0.2-2,0.4-2.3,1.3l-4.1,11.2l-8.8-14.9l-3.6,2.1L73.8,99
		c0.4,0.6,1.1,1,1.8,1c0.1,0,0.1,0,0.2,0c0.8-0.1,1.5-0.6,1.8-1.4l5-13.7l14.3,2.4c0.8,0.1,1.6-0.2,2.1-0.9
		C99.4,85.9,99.5,85,99.1,84.3z"/>
	<path id="XMLID_12_" d="M24.8,93.1l-4.1-11.2c-0.3-0.9-1.3-1.5-2.3-1.3l-11.7,2L18.6,62L15,59.9L0.9,84.3C0.5,85,0.6,85.9,1,86.5
		c0.5,0.7,1.3,1,2.1,0.9L17.4,85l5,13.7c0.3,0.8,1,1.3,1.8,1.4c0.1,0,0.1,0,0.2,0c0.7,0,1.4-0.4,1.8-1l11.1-18.7l-3.6-2.1L24.8,93.1
		z"/>
	<path id="XMLID_13_" d="M65,24.8c-0.9-0.7-2.2-0.5-2.9,0.4l-15,20.1l-9.4-9.4c-0.8-0.8-2.1-0.8-2.9,0c-0.8,0.8-0.8,2.1,0,2.9
		L45.8,50c0.4,0.4,0.9,0.6,1.5,0.6c0,0,0.1,0,0.2,0c0.6,0,1.2-0.3,1.5-0.8l16.5-22.1C66.1,26.8,66,25.5,65,24.8z"/>
</g>
</svg>
