<?xml version="1.0" encoding="utf-8"?>
<!-- Generator: Adobe Illustrator 19.0.0, SVG Export Plug-In . SVG Version: 6.00 Build 0)  -->
<svg version="1.1" id="Layer_1" xmlns="http://www.w3.org/2000/svg" xmlns:xlink="http://www.w3.org/1999/xlink" x="0px" y="0px"
	 viewBox="0 0 100 100" style="enable-background:new 0 0 100 100;" xml:space="preserve">
<g>
	<path d="M50,0C22.4,0,0,22.4,0,50s22.4,50,50,50s50-22.4,50-50S77.6,0,50,0z M50,96.8c-25.8,0-46.8-21-46.8-46.8
		c0-25.8,21-46.8,46.8-46.8c25.8,0,46.8,21,46.8,46.8C96.8,75.8,75.8,96.8,50,96.8z"/>
	<polygon id="XMLID_1_" points="41.1,57.7 31.8,48.4 25,55.2 40.8,71 41.1,70.7 41.4,71 76.4,36 69.6,29.2 	"/>
</g>
</svg>
