<?xml version="1.0" encoding="utf-8"?>
<!-- Generator: Adobe Illustrator 19.0.0, SVG Export Plug-In . SVG Version: 6.00 Build 0)  -->
<svg version="1.1" id="Layer_1" xmlns="http://www.w3.org/2000/svg" xmlns:xlink="http://www.w3.org/1999/xlink" x="0px" y="0px"
	 viewBox="-247 370.9 100 100" style="enable-background:new -247 370.9 100 100;" xml:space="preserve">
<g>
	<rect x="-181.4" y="416.5" transform="matrix(-0.866 0.5 -0.5 -0.866 -114.5723 893.3815)" width="8.8" height="29.6"/>
	<rect x="-186.8" y="412.5" transform="matrix(-0.5 -0.866 0.866 -0.5 -639.1628 463.6337)" width="2.1" height="7.7"/>
	<polygon points="-219.8,385.5 -222.4,381.9 -220.6,378.7 -216.2,379.2 -209.5,383.1 -213.1,389.4 	"/>
	<rect x="-173.3" y="417.1" transform="matrix(0.5 0.866 -0.866 0.5 278.0075 355.0878)" width="9.5" height="2.4"/>
	<polygon points="-197.2,392.7 -185.4,413.1 -188.8,415.1 -200.2,395.3 -200.3,395.2 -200.3,395.1 -200.4,395 -200.5,394.9 
		-200.6,394.8 -200.7,394.7 -200.8,394.6 -200.9,394.5 -201,394.5 -201.1,394.4 -201.2,394.3 -201.3,394.2 -210.8,388.7 
		-208.8,385.3 -198.6,391.2 -198.5,391.3 -198.3,391.4 -198.2,391.5 -198.1,391.6 -197.9,391.7 -197.8,391.9 -197.7,392 
		-197.6,392.1 -197.5,392.2 -197.4,392.4 -197.3,392.5 	"/>
	<rect x="-174.2" y="418" transform="matrix(0.5 0.866 -0.866 0.5 278.0029 360.0646)" width="2.8" height="5.5"/>
	<path d="M-232.1,374l-0.3,0l0.2,0.3l0.7,0.8l0.8,0.7l0.8,0.6l0.9,0.6l0.9,0.5l1,0.4l1,0.3l1,0.2l0.3,0l-0.2-0.3l-0.7-0.8l-0.8-0.7
		l-0.8-0.6l-0.9-0.6l-0.9-0.5l-1-0.4l-1-0.3L-232.1,374z M-228.5,373.6l1,0.5l1,0.6l0.9,0.7l0.9,0.8l0.8,0.9l0.7,1l1.1,1.9l-2.2,0
		l-1.2-0.1l-1.2-0.2l-1.1-0.3l-1.1-0.4l-1-0.5l-1-0.6l-0.9-0.7l-0.9-0.8l-0.8-0.9l-0.7-1l-1.1-1.9l2.2,0l1.2,0.1l1.2,0.2l1.1,0.3
		L-228.5,373.6z"/>
	<polygon points="-169.2,446.4 -167,445.2 -164,450.3 -163.6,454.1 -163.9,457.6 -164.9,461 -166.7,464 -169,466.7 -171.9,468.7 
		-175.1,470.2 -178.6,470.9 -182.1,470.9 -185.6,470.1 -188.6,468.7 -211.5,457.1 -212.9,456.4 -214.1,456 -215.4,455.8 
		-216.8,455.9 -218,456.2 -219.2,456.8 -220.3,457.6 -221.2,458.5 -222,459.6 -222.5,460.8 -222.8,462.1 -222.8,463.6 -225.4,463.5 
		-225.3,461.7 -224.9,460 -224.2,458.3 -223.2,456.9 -222,455.6 -220.5,454.5 -218.9,453.8 -217.2,453.4 -215.4,453.2 -213.6,453.4 
		-211.9,454 -210.3,454.8 -187.4,466.4 -184.7,467.6 -181.8,468.3 -178.8,468.3 -175.9,467.7 -173.2,466.5 -170.8,464.7 
		-168.8,462.5 -167.3,459.9 -166.4,457.1 -166.1,454.1 -166.5,451.2 	"/>
</g>
</svg>
