<?xml version="1.0" encoding="utf-8"?>
<!-- Generator: Adobe Illustrator 19.0.0, SVG Export Plug-In . SVG Version: 6.00 Build 0)  -->
<svg version="1.1" id="Layer_1" xmlns="http://www.w3.org/2000/svg" xmlns:xlink="http://www.w3.org/1999/xlink" x="0px" y="0px"
	 viewBox="0 0 100 100" style="enable-background:new 0 0 100 100;" xml:space="preserve">
<g id="XMLID_1_">
	<path id="XMLID_23_" d="M99.7,69.7L89.3,53c-0.4-0.6-1-1-1.8-1H70.8V41.6c0-1.2-0.9-2.1-2.1-2.1H45.8v4.2h20.8v37.6l-19.9,0
		c-1.4-2.5-4.1-4.2-7.2-4.2c-3.1,0-5.7,1.7-7.2,4.2H25V52h-4.2v31.3c0,1.2,0.9,2.1,2.1,2.1h8.3c0,4.6,3.7,8.3,8.3,8.3
		c4.6,0,8.3-3.7,8.3-8.3l20.8,0c0.1,0,0.2,0,0.3-0.1h3.8c0,0,0,0,0,0.1c0,4.6,3.7,8.3,8.3,8.3s8.3-3.7,8.3-8.3c0,0,0-0.1,0-0.1h8.3
		c1.2,0,2.1-0.9,2.1-2.1V70.8C100,70.4,99.9,70,99.7,69.7z M39.6,89.6c-2.3,0-4.2-1.9-4.2-4.2c0-2.3,1.9-4.2,4.2-4.2
		s4.2,1.9,4.2,4.2C43.8,87.7,41.9,89.6,39.6,89.6z M86.3,56.2l7.8,12.5H70.8V56.2H86.3z M81.2,89.6c-2.3,0-4.2-1.9-4.2-4.2
		c0-2.3,1.9-4.2,4.2-4.2s4.2,1.9,4.2,4.2C85.4,87.7,83.5,89.6,81.2,89.6z M88.4,81.2c-1.5-2.4-4.1-4.1-7.1-4.1c-3,0-5.7,1.7-7.1,4.1
		h-3.3v-8.3h25v8.3H88.4z"/>
	<path id="XMLID_29_" d="M20.8,47.9c11.3,0,20.8-9.5,20.8-20.8S32.1,6.2,20.8,6.2S0,15.8,0,27.1S9.5,47.9,20.8,47.9z M20.8,10.4
		c9,0,16.7,7.6,16.7,16.7s-7.6,16.7-16.7,16.7S4.2,36.1,4.2,27.1S11.8,10.4,20.8,10.4z"/>
	<path id="XMLID_30_" d="M18.8,31.2h8.3c1.2,0,2.1-0.9,2.1-2.1c0-1.2-0.9-2.1-2.1-2.1h-6.2V16.6c0-1.2-0.9-2.1-2.1-2.1
		c-1.2,0-2.1,0.9-2.1,2.1v12.5C16.7,30.3,17.6,31.2,18.8,31.2z"/>
	<path id="XMLID_31_" d="M14.6,60.4l-12.5,0C0.8,60.3,0,61.3,0,62.5c0,1.2,0.9,2.1,2.1,2.1l12.5,0c0,0,0,0,0,0
		c1.1,0,2.1-0.9,2.1-2.1C16.7,61.3,15.7,60.4,14.6,60.4z"/>
	<path id="XMLID_32_" d="M14.6,68.7l-6.2,0c-1.2,0-2.1,0.9-2.1,2.1c0,1.2,0.9,2.1,2.1,2.1l6.2,0c0,0,0,0,0,0c1.1,0,2.1-0.9,2.1-2.1
		C16.7,69.7,15.7,68.7,14.6,68.7z"/>
	<path id="XMLID_33_" d="M14.6,77.1l-2.1,0c-1.3-0.1-2.1,0.9-2.1,2.1c0,1.2,0.9,2.1,2.1,2.1l2.1,0c0,0,0,0,0,0
		c1.1,0,2.1-0.9,2.1-2.1C16.7,78,15.8,77.1,14.6,77.1z"/>
</g>
</svg>
