<?xml version="1.0" encoding="utf-8"?>
<!-- Generator: Adobe Illustrator 19.0.0, SVG Export Plug-In . SVG Version: 6.00 Build 0)  -->
<svg version="1.1" id="Layer_1" xmlns="http://www.w3.org/2000/svg" xmlns:xlink="http://www.w3.org/1999/xlink" x="0px" y="0px"
	 viewBox="0 0 100 100" style="enable-background:new 0 0 100 100;" xml:space="preserve">
<g>
	<path id="XMLID_2_" d="M60.3,45.2H49.5l0,0c0,0,0,0,0,0H31v11.9h16.7c0,2-0.7,3.6-2,5.1c-3.5,4.3-8.8,7-14.8,7
		c-10.6,0-19.1-8.6-19.1-19.1c0-10.6,8.6-19.1,19.1-19.1c4.7,0,9,1.7,12.3,4.5l8.2-8.6C46,21.9,38.9,19,31,19C13.9,19,0,32.9,0,50
		c0,17.1,13.9,31,31,31c6,0,11.6-1.7,16.3-4.6c8.8-5.5,13.4-15.2,13.4-26.4C60.7,48.4,60.6,46.8,60.3,45.2z"/>
	<polygon id="XMLID_1_" points="100,44.5 87.5,44.5 87.5,32 79.1,32 79.1,44.5 66.6,44.5 66.6,52.9 79.1,52.9 79.1,65.3 87.5,65.3 
		87.5,52.9 100,52.9 	"/>
</g>
</svg>
