<?xml version="1.0" encoding="utf-8"?>
<!-- Generator: Adobe Illustrator 19.0.0, SVG Export Plug-In . SVG Version: 6.00 Build 0)  -->
<svg version="1.1" id="Layer_1" xmlns="http://www.w3.org/2000/svg" xmlns:xlink="http://www.w3.org/1999/xlink" x="0px" y="0px"
	 viewBox="-247 370.9 100 100" style="enable-background:new -247 370.9 100 100;" xml:space="preserve">
<g>
	<path d="M-189.4,433.4L-189.4,433.4l0.3-0.6l0.1-0.6l0-0.6l-0.2-0.6l-0.3-0.5l-0.4-0.4l-5.1-2.9l-0.6-0.1l-0.6,0l-0.6,0.2l-0.5,0.3
		l-0.4,0.4l-0.3,0.5l0,0l0,0l-0.2,0.5l-0.1,0.6l0,0.6l0.1,0.6l0.3,0.5l0.4,0.5l5.1,2.9l0.6,0.1l0.6,0l0.6-0.1l0.6-0.3l0.5-0.4
		L-189.4,433.4L-189.4,433.4z M-168.6,432.1l3.7,2.1l-2.1,5.7l2,1.6l-5.3,9.1l-33.2-13.1l-1.3,2.2L-218,432l2-1.1l1.9-1.3l1.8-1.5
		l1.6-1.6l1.4-1.8l1.2-1.9l1-2.1l0.8-2.2l0.6-2.2l0.4-2.3l0.1-2.3l-0.1-2.3l13.4,7.8l-1.2,2l21.1,16.8L-168.6,432.1z"/>
	<polygon points="-221.9,410.7 -221.7,410.8 -221.5,410.9 -221.3,411 -221.1,411.2 -220.9,411.3 -220.8,411.5 -220.6,411.7 
		-220.5,411.9 -220.4,412.1 -220.3,412.3 -220.2,412.5 -220.1,412.7 -220,412.9 -220,413.2 -219.9,413.4 -219.9,413.6 -219.9,413.8 
		-219.9,414.1 -219.9,414.3 -220,414.5 -220,414.8 -220.1,415 -220.2,415.2 -220.3,415.4 -220.4,415.6 -220.5,415.8 -220.6,416 
		-220.8,416.2 -220.9,416.4 -221.1,416.5 -221.3,416.7 -221.5,416.8 -221.7,416.9 -221.9,417 -222.1,417.1 -222.3,417.2 
		-222.5,417.3 -222.8,417.3 -223,417.4 -223.2,417.4 -223.5,417.4 -223.7,417.4 -223.9,417.4 -224.2,417.3 -224.4,417.3 
		-224.6,417.2 -224.8,417.1 -225,417 -225.2,416.9 -225.4,416.8 -225.6,416.7 -225.8,416.5 -226,416.4 -226.1,416.2 -226.3,416 
		-226.4,415.8 -226.5,415.6 -226.6,415.4 -226.7,415.2 -226.8,415 -226.9,414.8 -226.9,414.5 -227,414.3 -227,414.1 -227,413.8 
		-227,413.6 -227,413.4 -226.9,413.2 -226.9,412.9 -226.8,412.7 -226.7,412.5 -226.6,412.3 -226.5,412.1 -226.4,411.9 -226.3,411.7 
		-226.1,411.5 -226,411.3 -225.8,411.2 -225.6,411 -225.4,410.9 -225.2,410.8 -225,410.7 -224.8,410.6 -224.6,410.5 -224.4,410.4 
		-224.2,410.4 -223.9,410.3 -223.7,410.3 -223.5,410.3 -223.2,410.3 -223,410.3 -222.8,410.4 -222.5,410.4 -222.3,410.5 
		-222.1,410.6 	"/>
	<polygon points="-189.4,433.4 -189.4,433.4 -189.4,433.4 	"/>
	<polygon points="-198.1,428.4 -198.1,428.4 -198.1,428.4 	"/>
	<rect x="-166.1" y="444" transform="matrix(0.866 0.5 -0.5 0.866 202.9125 141.2221)" width="8" height="10.5"/>
	<polygon points="-189,406.4 -190.2,408.2 -191.5,410 -192.8,411.7 -194.2,413.3 -200.2,409.9 -199.6,407.8 -198.9,405.7 
		-198.1,403.7 -197.2,401.7 -196.2,399.8 -195.2,397.9 -194,396 -192.8,394.2 -191.5,392.4 -190.2,390.7 -188.8,389.1 -187.3,387.5 
		-187.2,387.5 -188.6,386.7 -187.8,385.3 -179.2,390.3 -180,391.7 -181.3,390.9 -181.3,390.9 -182,393 -182.8,395 -183.7,397 
		-184.6,398.9 -185.6,400.9 -186.7,402.8 -187.8,404.6 	"/>
	<polygon points="-149.4,422.9 -149.7,423.1 -150,423.2 -150.2,423.4 -150.5,423.5 -150.8,423.6 -151.1,423.7 -159.3,425.9 
		-159.8,426.1 -160.2,426.3 -160.6,426.5 -161,426.7 -161.4,426.9 -161.8,427.2 -162.2,427.5 -162.5,427.8 -162.9,428.2 
		-163.2,428.5 -163.4,428.9 -163.7,429.3 -165.2,431.9 -166.4,431.2 -164.9,428.6 -164.6,428.2 -164.4,427.9 -164.1,427.5 
		-163.7,427.1 -163.4,426.8 -163,426.5 -162.7,426.2 -162.2,426 -161.8,425.8 -161.4,425.6 -161,425.4 -160.5,425.3 -152.3,423 
		-152,422.9 -151.7,422.8 -151.4,422.7 -151.2,422.5 -150.9,422.4 -150.6,422.2 -150.4,422 -150.2,421.8 -150,421.5 -149.8,421.3 
		-149.6,421 -149.4,420.8 -148.4,419 -147.2,419.7 -148.2,421.4 -148.4,421.7 -148.5,422 -148.7,422.2 -149,422.5 -149.2,422.7 	"/>
	<polygon points="-247,409.4 -247,409.2 -247,409.1 -247,408.9 -246.9,408.8 -246.9,408.6 -246.8,408.5 -239.9,396.5 -239.8,396.4 
		-239.7,396.3 -239.6,396.1 -239.4,396 -239.3,395.9 -239.1,395.8 -239,395.8 -238.8,395.7 -238.6,395.7 -238.4,395.7 -238.2,395.7 
		-238.1,395.8 -230.4,397.6 -232.1,398.5 -233.6,399.5 -235.1,400.7 -236.4,402.1 -237.6,403.5 -238.6,405.1 -239.4,406.7 
		-240.1,408.5 -240.6,410.3 -240.9,412.1 -241,414 -240.9,415.8 -246.6,410.2 -246.7,410 -246.8,409.9 -246.9,409.8 -246.9,409.7 
		-247,409.5 	"/>
	<path d="M-222.8,403.3l-0.7,0l-0.7,0l-0.7,0.1l-0.7,0.1l-1.3-2.2l0,2.6l-0.6,0.2l-0.6,0.3l-0.6,0.3l-0.6,0.4l-0.6,0.4l-0.5,0.4
		l-0.5,0.5l-0.5,0.5l-0.4,0.5l-0.4,0.6l-2.5-0.7l1.8,1.9l-0.3,0.6l-0.2,0.6l-0.2,0.7l-0.2,0.7l-0.1,0.7l-0.1,0.7l0,0.7l0,0.7
		l0.1,0.7l0.1,0.7l-2.2,1.3l2.6,0l0.2,0.6l0.3,0.6l0.3,0.6l0.4,0.6l0.4,0.6l0.4,0.5l0.5,0.5l0.5,0.5l0.5,0.4l0.6,0.4l-0.7,2.5
		l1.9-1.8l0.6,0.3l0.6,0.2l0.7,0.2l0.7,0.2l0.7,0.1l0.7,0.1l0.7,0l0.7,0l0.7-0.1l0.7-0.1l1.3,2.2l0-2.6l0.6-0.2l0.6-0.3l0.6-0.3
		l0.6-0.4l0.6-0.4l0.5-0.4l0.5-0.5l0.5-0.5l0.4-0.5l0.4-0.6l2.5,0.7l-1.8-1.9l0.3-0.6l0.2-0.6l0.2-0.7l0.2-0.7l0.1-0.7l0.1-0.7
		l0-0.7l0-0.7l-0.1-0.7l-0.1-0.7l2.2-1.3l-2.6,0l-0.2-0.6l-0.3-0.6l-0.3-0.6l-0.4-0.6l-0.4-0.6l-0.4-0.5l-0.5-0.5l-0.5-0.5l-0.5-0.4
		l-0.6-0.4l0.7-2.5l-1.9,1.8l-0.6-0.3l-0.6-0.2l-0.7-0.2l-0.7-0.2l-0.7-0.1L-222.8,403.3z M-236.7,406.2l0.5-0.9l0.6-0.8l0.6-0.8
		l0.7-0.7l0.7-0.7l0.8-0.6l0.8-0.6l0.9-0.5l0.9-0.5l0.9-0.4l0.9-0.4l1-0.3l1-0.2l1-0.2l1-0.1l1,0l1,0l1,0.1l1,0.2l1,0.2l1,0.3
		l0.9,0.4l0.9,0.4l0.9,0.5l0.9,0.5l0.8,0.6l0.8,0.6l0.7,0.7l0.7,0.7l0.6,0.8l0.6,0.8l0.5,0.9l0.5,0.9l0.4,0.9l0.4,0.9l0.3,1l0.2,1
		l0.2,1l0.1,1l0,1l0,1l-0.1,1l-0.2,1l-0.2,1l-0.3,1l-0.4,0.9l-0.4,0.9l-0.5,0.9l-0.5,0.9l-0.6,0.8l-0.6,0.8l-0.7,0.7l-0.7,0.7
		l-0.8,0.6l-0.8,0.6l-0.9,0.5l-0.9,0.5l-0.9,0.4l-0.9,0.4l-1,0.3l-1,0.2l-1,0.2l-1,0.1l-1,0l-1,0l-1-0.1l-1-0.2l-1-0.2l-1-0.3
		l-0.9-0.4l-0.9-0.4l-0.9-0.5l-0.9-0.5l-0.8-0.6l-0.8-0.6l-0.7-0.7l-0.7-0.7l-0.6-0.8l-0.6-0.8l-0.5-0.9l-0.5-0.9l-0.4-0.9l-0.4-0.9
		l-0.3-1l-0.2-1l-0.2-1l-0.1-1l0-1l0-1l0.1-1l0.2-1l0.2-1l0.3-1l0.4-0.9l0.4-0.9L-236.7,406.2z"/>
</g>
</svg>
