<?xml version="1.0" encoding="utf-8"?>
<!-- Generator: Adobe Illustrator 19.0.0, SVG Export Plug-In . SVG Version: 6.00 Build 0)  -->
<svg version="1.1" id="Layer_1" xmlns="http://www.w3.org/2000/svg" xmlns:xlink="http://www.w3.org/1999/xlink" x="0px" y="0px"
	 viewBox="0 0 100 100" style="enable-background:new 0 0 100 100;" xml:space="preserve">
<g id="XMLID_1_">
	<path id="XMLID_4_" d="M97.9,41.7H86c-0.5-1.8-1-3.9-1.7-5.9c-0.4-1.1-1.6-1.7-2.6-1.3c-1.1,0.4-1.7,1.6-1.3,2.6
		c0.8,2.5,1.5,5.1,2,7.1c0.2,0.9,1.1,1.6,2,1.6h11.4v8.3H84.4c-1,0-1.8,0.7-2,1.6c-0.6,2.3-2.1,8.5-3.9,11.6
		c-0.5,0.8-0.4,1.9,0.3,2.6l8.1,8.1L78,86.8l-8.1-8.1c-0.7-0.7-1.7-0.8-2.6-0.3c-3.1,1.9-9.2,3.4-11.6,3.9c-0.9,0.2-1.6,1.1-1.6,2
		v11.4h-8.3V84.4c0-1-0.7-1.8-1.6-2c-2.3-0.6-8.5-2.1-11.6-3.9c-0.8-0.5-1.9-0.4-2.6,0.3L22,86.8L13.2,78l8.1-8.1
		c0.7-0.7,0.8-1.7,0.3-2.6c-1.9-3.1-3.4-9.2-3.9-11.6c-0.2-0.9-1.1-1.6-2-1.6H4.2v-8.3h11.4c1,0,1.8-0.7,2-1.6
		c0.6-2.3,2.1-8.5,3.9-11.6c0.5-0.8,0.4-1.9-0.3-2.6L13.2,22l8.8-8.8l8.1,8.1c0.7,0.7,1.7,0.8,2.6,0.3c2.8-1.7,7.9-3.1,11.6-3.9
		c0.9-0.2,1.6-1.1,1.6-2V4.2h8.3v11.4c0,1,0.7,1.8,1.6,2c3.6,0.9,8.8,2.2,11.6,3.9c1,0.6,2.3,0.3,2.9-0.7c0.6-1,0.3-2.3-0.7-2.9
		c-2.9-1.7-7.3-3-11.2-4V2.1c0-1.2-0.9-2.1-2.1-2.1H43.7c-1.2,0-2.1,0.9-2.1,2.1V14c-3.3,0.8-6.9,1.9-9.7,3.2l-8.5-8.5
		c-0.8-0.8-2.1-0.8-2.9,0L8.7,20.5c-0.4,0.4-0.6,0.9-0.6,1.5s0.2,1.1,0.6,1.5l8.5,8.5c-1.3,2.8-2.4,6.4-3.2,9.7H2.1
		c-1.2,0-2.1,0.9-2.1,2.1v12.5c0,1.2,0.9,2.1,2.1,2.1H14c0.8,3.3,1.9,7,3.2,9.7l-8.5,8.5c-0.4,0.4-0.6,0.9-0.6,1.5s0.2,1.1,0.6,1.5
		l11.8,11.8c0.8,0.8,2.2,0.8,2.9,0l8.5-8.5c2.8,1.4,6.4,2.4,9.7,3.3v11.9c0,1.2,0.9,2.1,2.1,2.1h12.5c1.2,0,2.1-0.9,2.1-2.1V86
		c3.3-0.8,6.9-1.9,9.7-3.2l8.5,8.5c0.8,0.8,2.1,0.8,2.9,0l11.8-11.8c0.8-0.8,0.8-2.1,0-2.9L82.8,68c1.3-2.8,2.4-6.4,3.2-9.7h11.9
		c1.2,0,2.1-0.9,2.1-2.1V43.8C100,42.6,99.1,41.7,97.9,41.7z"/>
	<path id="XMLID_5_" d="M34.1,39.8c-0.8-0.8-2.1-0.8-2.9,0c-0.8,0.8-0.8,2.1,0,2.9l18.7,18.6c0.4,0.4,0.9,0.6,1.5,0.6
		c0,0,0.1,0,0.1,0c0.6,0,1.1-0.3,1.5-0.8L99.5,3.4c0.7-0.9,0.6-2.2-0.3-2.9c-0.9-0.7-2.2-0.6-2.9,0.3l-45.2,56L34.1,39.8z"/>
</g>
</svg>
