<?xml version="1.0" encoding="utf-8"?>
<!-- Generator: Adobe Illustrator 19.0.0, SVG Export Plug-In . SVG Version: 6.00 Build 0)  -->
<svg version="1.1" id="Layer_1" xmlns="http://www.w3.org/2000/svg" xmlns:xlink="http://www.w3.org/1999/xlink" x="0px" y="0px"
	 viewBox="0 0 100 100" style="enable-background:new 0 0 100 100;" xml:space="preserve">
<g id="XMLID_1_">
	<rect id="XMLID_2_" x="1.6" y="33.2" width="20.7" height="66.7"/>
	<path id="XMLID_6_" d="M12,0.1c-6.6,0-12,5.4-12,12c0,6.6,5.4,12,12,12c6.6,0,12-5.4,12-12C24,5.5,18.6,0.1,12,0.1z"/>
	<path id="XMLID_7_" d="M75.2,31.6c-10.1,0-16.8,5.5-19.6,10.8h-0.3v-9.1H35.4v66.7h20.7v-33c0-8.7,1.6-17.1,12.4-17.1
		c10.6,0,10.8,9.9,10.8,17.7v32.4H100V63.3C100,45.4,96.1,31.6,75.2,31.6z"/>
</g>
</svg>
