<?xml version="1.0" encoding="utf-8"?>
<!-- Generator: Adobe Illustrator 19.0.0, SVG Export Plug-In . SVG Version: 6.00 Build 0)  -->
<svg version="1.1" id="Layer_1" xmlns="http://www.w3.org/2000/svg" xmlns:xlink="http://www.w3.org/1999/xlink" x="0px" y="0px"
	 viewBox="0 0 100 100" style="enable-background:new 0 0 100 100;" xml:space="preserve">
<g>
	<path id="XMLID_5_" d="M50,100C22.4,100,0,77.6,0,50C0,22.4,22.4,0,50,0c27.6,0,50,22.4,50,50C100,77.6,77.6,100,50,100z M50,4.2
		C24.7,4.2,4.2,24.7,4.2,50S24.7,95.8,50,95.8S95.8,75.3,95.8,50S75.3,4.2,50,4.2z"/>
	<path id="XMLID_2_" d="M60.4,79.2H39.6c-0.6,0-1.2-0.3-1.6-0.7c-0.4-0.5-0.6-1.1-0.5-1.7l3.8-25c-5-3-8-8.3-8-14.2
		c0-9.2,7.5-16.7,16.7-16.7c9.2,0,16.7,7.5,16.7,16.7c0,5.9-3,11.2-8,14.2l3.8,25c0.1,0.6-0.1,1.2-0.5,1.7
		C61.6,78.9,61,79.2,60.4,79.2z M42,75h16l-3.7-24.1c-0.1-0.9,0.3-1.8,1.2-2.2c4.4-2.1,7.1-6.4,7.1-11.2C62.5,30.6,56.9,25,50,25
		s-12.5,5.6-12.5,12.5c0,4.8,2.7,9.1,7.1,11.2c0.8,0.4,1.3,1.3,1.1,2.2L42,75z"/>
</g>
</svg>
