<?xml version="1.0" encoding="utf-8"?>
<!-- Generator: Adobe Illustrator 19.0.0, SVG Export Plug-In . SVG Version: 6.00 Build 0)  -->
<svg version="1.1" id="Layer_1" xmlns="http://www.w3.org/2000/svg" xmlns:xlink="http://www.w3.org/1999/xlink" x="0px" y="0px"
	 viewBox="0 0 100 100" style="enable-background:new 0 0 100 100;" xml:space="preserve">
<g>
	<path id="XMLID_8_" d="M77,72.9H27c-2.3,0-4.2-0.9-5.3-2.6c-1.2-1.8-1.3-4.1-0.4-6.5L33,34.6c1.7-4.2,6.4-7.6,10.7-7.6h50
		c2.3,0,4.2,0.9,5.3,2.6c1.2,1.8,1.3,4.1,0.4,6.5L87.7,65.4c0,0,0,0,0,0C86,69.6,81.3,72.9,77,72.9z M43.7,31.2
		c-2.6,0-5.7,2.3-6.8,4.9L25.2,65.4c-0.4,1.1-0.4,2,0,2.6c0.4,0.6,1.2,0.8,1.9,0.8h50c2.6,0,5.8-2.3,6.8-4.9l11.7-29.2
		c0.4-1.1,0.4-2,0-2.6c-0.4-0.6-1.2-0.8-1.9-0.8H43.7z"/>
	<path id="XMLID_7_" d="M58.7,56.3c-0.5,0-1.1-0.2-1.5-0.6L40.9,39c-0.8-0.8-0.8-2.1,0-2.9c0.8-0.8,2.1-0.8,2.9,0l15.1,15.5
		l28.2-15.9c1-0.6,2.3-0.2,2.8,0.8c0.6,1,0.2,2.3-0.8,2.8L59.7,56C59.4,56.2,59,56.3,58.7,56.3z"/>
	<path id="XMLID_6_" d="M31.6,66.7c-0.7,0-1.3-0.3-1.7-0.9c-0.7-0.9-0.5-2.2,0.5-2.9L45,52.5c0.9-0.7,2.2-0.5,2.9,0.5
		c0.7,0.9,0.5,2.2-0.5,2.9L32.8,66.3C32.4,66.5,32,66.7,31.6,66.7z"/>
	<path id="XMLID_5_" d="M77.4,66.7c-0.7,0-1.4-0.4-1.8-1l-6.3-10.4c-0.6-1-0.3-2.3,0.7-2.9c1-0.6,2.3-0.3,2.9,0.7l6.3,10.4
		c0.6,1,0.3,2.3-0.7,2.9C78.2,66.6,77.8,66.7,77.4,66.7z"/>
	<path id="XMLID_4_" d="M22.9,31.2H2.1c-1.2,0-2.1-0.9-2.1-2.1c0-1.2,0.9-2.1,2.1-2.1h20.8c1.2,0,2.1,0.9,2.1,2.1
		C25,30.3,24.1,31.2,22.9,31.2z"/>
	<path id="XMLID_3_" d="M10.4,68.8H2.1c-1.2,0-2.1-0.9-2.1-2.1c0-1.2,0.9-2.1,2.1-2.1h8.3c1.2,0,2.1,0.9,2.1,2.1
		C12.5,67.8,11.6,68.8,10.4,68.8z"/>
	<path id="XMLID_2_" d="M14.6,47.9H2.1C0.9,47.9,0,47,0,45.8s0.9-2.1,2.1-2.1h12.5c1.2,0,2.1,0.9,2.1,2.1S15.7,47.9,14.6,47.9z"/>
</g>
</svg>
