<?xml version="1.0" encoding="utf-8"?>
<!-- Generator: Adobe Illustrator 19.0.0, SVG Export Plug-In . SVG Version: 6.00 Build 0)  -->
<svg version="1.1" id="Layer_1" xmlns="http://www.w3.org/2000/svg" xmlns:xlink="http://www.w3.org/1999/xlink" x="0px" y="0px"
	 viewBox="0 0 100 100" style="enable-background:new 0 0 100 100;" xml:space="preserve">
<g id="XMLID_1_">
	<path id="XMLID_14_" d="M51,23.5h8.2c1.1,0,2-0.9,2-2s-0.9-2-2-2H51c-1.1,0-2,0.9-2,2S49.9,23.5,51,23.5z"/>
	<path id="XMLID_15_" d="M77.6,27.6H55.1c-1.1,0-2,0.9-2,2s0.9,2,2,2h22.4c1.1,0,2-0.9,2-2S78.7,27.6,77.6,27.6z"/>
	<path id="XMLID_16_" d="M49,39.8h26.5c1.1,0,2-0.9,2-2c0-1.1-0.9-2-2-2H49c-1.1,0-2,0.9-2,2C46.9,38.9,47.9,39.8,49,39.8z"/>
	<path id="XMLID_17_" d="M77.6,43.9H49c-1.1,0-2,0.9-2,2c0,1.1,0.9,2,2,2h28.6c1.1,0,2-0.9,2-2C79.6,44.8,78.7,43.9,77.6,43.9z"/>
	<path id="XMLID_18_" d="M73.5,56.1c1.1,0,2-0.9,2-2c0-1.1-0.9-2-2-2H49c-1.1,0-2,0.9-2,2c0,1.1,0.9,2,2,2H73.5z"/>
	<path id="XMLID_19_" d="M75.5,60.2H46.9c-1.1,0-2,0.9-2,2c0,1.1,0.9,2,2,2h28.6c1.1,0,2-0.9,2-2C77.6,61.1,76.6,60.2,75.5,60.2z"/>
	<path id="XMLID_22_" d="M93.9,3.1H43c-4.8,0-6.2,5.3-6.2,8.2c0,0.4,0.4,34.8-3.7,57.1H14.3c-1.8,0-3.2,0.6-4.3,1.7
		c-2.4,2.4-2.3,6.6-2.3,11.1c0,4,0.1,8.5-1.9,10.5c-0.8,0.8-2,1.2-3.7,1.2c-1.1,0-2,0.9-2,2s0.9,2,2,2H53c2.8,0,5-0.8,6.6-2.4
		c1.5-1.5,2.2-3.5,2.6-5.7h15.2c1.8,0,3.4-0.7,4.8-2.2c8.9-9.1,9.7-49.2,9.6-67.2H98c1.1,0,2-0.9,2-2C100,13.1,99.4,3.1,93.9,3.1z
		 M56.7,91.6c-0.8,0.8-2,1.2-3.7,1.2h-43c1.9-3.2,1.8-7.7,1.8-11.8c0-3.3,0-7,1.1-8.2c0.2-0.2,0.6-0.5,1.4-0.5h20.4h24.7
		c-0.9,2.4-0.9,5.5-0.9,8.7C58.6,85.1,58.6,89.7,56.7,91.6z M62.6,81.1c0-3.3,0-7,1.1-8.2c0.2-0.2,0.6-0.5,1.4-0.5
		c0.6,0,1.5,0.1,1.9,0.5c0.7,0.7,0.7,2.7,0.7,4.6c0,2.4,0,5,1.2,7.2h-6.3C62.7,83.5,62.7,82.3,62.6,81.1z M79.3,83.7
		c-0.9,1-1.7,1-1.9,1c-2.2,0-3.7-0.4-4.5-1.2c-1.2-1.2-1.2-3.6-1.1-5.9c0-2.7,0.1-5.6-1.8-7.5c-1.1-1.1-2.7-1.7-4.8-1.7H37.1
		c4-22.6,3.7-55.7,3.7-57.1c0,0,0.2-4.1,2.1-4.1h45.5c-0.6,1.4-0.8,3-0.8,4.1C88.1,28.6,87.5,75.3,79.3,83.7z M91.8,15.3
		c0-1.9-0.1-3.3-0.1-4c0,0,0.2-4.1,2.1-4.1h0c0.8,0.4,1.8,3.9,2,8.2H91.8z"/>
</g>
</svg>
