<?xml version="1.0" encoding="utf-8"?>
<!-- Generator: Adobe Illustrator 19.0.0, SVG Export Plug-In . SVG Version: 6.00 Build 0)  -->
<svg version="1.1" id="Layer_1" xmlns="http://www.w3.org/2000/svg" xmlns:xlink="http://www.w3.org/1999/xlink" x="0px" y="0px"
	 viewBox="-247 370.9 100 100" style="enable-background:new -247 370.9 100 100;" xml:space="preserve">
<g>
	<path d="M-160.4,467.5L-160.4,467.5l-0.2,0l-0.1,0l-0.1,0l-0.1,0l-0.1,0l-0.1,0l-0.1,0l-0.1,0l-0.1,0l-0.1,0l-0.1,0l-0.1,0l-0.1,0
		l-0.1,0l-0.1,0l-0.1,0l-0.1,0.1l-0.1,0.1l0,0.1l0,0.1l0,0.1l0,0.1l0,0.1l0,0.1l0,0.1l0,0.1l0,0.1l0,0.1l0,0.1l0,0.1l0,0.1l0,0.1
		l0,0.1l0,0.1l0,0.1l0,0.1l0,0.1l0,0.1l0.1,0.1l0.1,0.1l0.1,0l0.1,0l0.1,0l0.1,0l0.1,0l0.1,0l0.1,0l0.1,0l0.1,0l0.1,0l0.1,0l0.1,0
		l0.1,0l0.1,0l0.1,0l0.1,0l0.1,0l0.1,0l0.1,0l0.1,0l0.1,0l0.1,0l0.1,0l0.1,0l0.1-0.1l0.1-0.1l0-0.1l0-0.1l0-0.1l0-0.1l0-0.1l0-0.1
		l0-0.1l0-0.1l0-0.1l0-0.1l0-0.1l0-0.1l0-0.1l0-0.1l0-0.1l0-0.1l0-0.1l0-0.1l0-0.1l0-0.1l-0.1-0.1l-0.1-0.1l-0.1,0l-0.1,0l-0.1,0
		l-0.1,0l-0.1,0L-160.4,467.5L-160.4,467.5z M-173.3,421.4l0,0.2l0.1,0.2l0.1,0.2l0.1,0.2l0.2,0.2l0.2,0.2l0.2,0.2l0.2,0.1l0.2,0.1
		l0.3,0.1l0.3,0l0.3,0h5.7l0.3,0l0.3,0l0.3,0l0.3,0l0.3,0.1l0.3,0.1l0.3,0.1l0.3,0.1l0.3,0.1l0.3,0.1l0.3,0.1l0.3,0.2l1.6,0.8h11.3
		l1.1-0.9v3.4l-1.1-0.7h-8l1.5,0.8l0.5,0.3l0.4,0.3l0.4,0.3l0.4,0.3l0.4,0.3l0.4,0.3l0.4,0.4l0.3,0.4l0.3,0.4l0.3,0.4l0.3,0.4
		l0.2,0.4v1.9l0,0.3l-0.1,0.3l-0.1,0.3l-0.2,0.3l-0.2,0.3l-0.2,0.2l-0.3,0.2l-0.3,0.2l-0.3,0.1l-0.3,0.1l-0.3,0.1l-0.3,0h-3.7
		l-0.1,0l-0.1,0l-0.1,0l-0.1,0.1l-0.1,0.1l-0.1,0.1l-0.1,0.1l-0.1,0.1l0,0.1l0,0.1l0,0.1l0,0.1l6.4,21.8l0.1,0.4l0,0.4l0,0.4
		l-0.1,0.4l-0.1,0.4l-0.1,0.3l-0.2,0.3l-0.2,0.3l-0.3,0.3l-0.3,0.3l-0.3,0.2l-0.4,0.2l-2.9,0.7l-0.3,0.1l-0.3,0.2l-0.2,0.2l-0.2,0.2
		l-0.2,0.2l-0.2,0.2l-0.2,0.2l-0.1,0.3l-0.1,0.3l-0.1,0.3l0,0.3l0,0.3v3.6l-0.2,0.3l-0.2,0.2l-0.2,0.2l-0.2,0.2l-0.3,0.2l-0.3,0.1
		l-0.3,0.1l-0.3,0.1l-0.3,0l-0.3,0l-0.3,0l-0.3-0.1l-6.4-5.2l-0.4-0.3l-0.3-0.3l-0.3-0.4l-0.3-0.4l-0.3-0.4l-0.2-0.4l-0.2-0.4
		l-0.2-0.4l-0.1-0.4l-0.1-0.5l-0.1-0.5l0-0.5v-18.6l0-0.2l-0.1-0.2l-0.1-0.2l-0.1-0.2l-0.1-0.2l-0.2-0.2l-0.2-0.2l-0.2-0.1l-0.2-0.1
		l-0.3-0.1l-0.3,0l-0.3,0h-2.1l-0.3,0l-0.3,0.1l-0.2,0.1l-0.2,0.1l-0.2,0.1l-0.2,0.2l-0.2,0.2l-0.2,0.2l-0.1,0.2l-0.1,0.2l-0.1,0.2
		l0,0.2l-0.1,0.7l-0.2,1.3l-0.3,1.2l-0.4,1.2l-0.5,1.2l-0.6,1.2l-0.6,1.1l-0.7,1.1l-0.2,0.3l-0.1,0.1l-0.1,0.1l-0.1,0.1l-0.1,0.1
		l-0.1,0l-0.1,0l-0.1,0l-0.1,0l-0.1-0.1l-0.1-0.1l-0.1-0.1l-0.1-0.1l0.1-0.6l0.2-1.2l0.1-1.2l0-1.2l0-1.2l-0.1-1.2l-0.2-1.2
		l-0.3-1.2l-0.3-1.2l-0.4-1.1l-0.3-0.6l-0.3-0.6l-0.4-0.6l-0.5-0.5l-0.5-0.5l-0.6-0.4l-0.6-0.4l-0.7-0.3l-0.7-0.2l-0.7-0.2l-0.7-0.1
		l-0.7,0h-20.9l-0.3,0l-0.3,0l-0.3-0.1l-0.3-0.1l-0.2-0.1l-0.2-0.2l-0.2-0.2l-0.2-0.2l-0.1-0.2l-0.1-0.2l-0.1-0.2l0-0.2v-12.8l0-0.2
		l0-0.2l0.1-0.2l0.1-0.2l0.1-0.2l0.1-0.2l0.1-0.1l0.2-0.1l0.2-0.1l0.2-0.1l0.2-0.1l0.2-0.1h1.4l0.2,0l0.2,0l0.2,0l0.2-0.1l0.2-0.1
		l0.2-0.1l0.2-0.1l0.2-0.1l0.2-0.1l0.2-0.1l0.1-0.1l0.1-0.2l1.1-1.4h7.4v1.2l0,0.2l0,0.2l0.1,0.2l0.1,0.1l0.1,0.1l0.1,0.1l0.1,0.1
		l0.2,0.1l0.2,0.1l0.2,0.1l0.2,0l0.2,0h22.3l0.2,0l0.2,0l0.2,0.1l0.2,0.1l0.2,0.1l0.2,0.1l0.1,0.1l0.1,0.2l0.1,0.2l0.1,0.2l0,0.2
		l0,0.2V421.4z"/>
	<path d="M-214.5,422v-0.9h-6.8v0.9H-214.5z M-214.5,426.2v-0.9h-6.8v0.9H-214.5z M-214.5,430.3v-0.9h-6.8v0.9H-214.5z
		 M-214.5,434.5v-0.9h-6.8v0.9H-214.5z M-214.5,432.4v-0.9h-6.8v0.9H-214.5z M-214.5,424.1v-0.9h-6.8v0.9H-214.5z M-214.5,428.2
		v-0.9h-6.8v0.9H-214.5z M-221.3,435.5v0.9h6.8v-0.9H-221.3z M-221.3,419.2v0.9h6.8v-0.9H-221.3z M-213.8,418.5v18.6h-8.2v-2.3
		l-4.2-5.4v-3.2l4.2-5.4v-2.3H-213.8z"/>
	<polygon points="-228.3,427.7 -228.3,427.8 -228.3,427.8 -228.3,427.9 -228.3,427.9 -228.3,428 -228.3,428 -228.3,428.1 
		-228.3,428.1 -228.4,428.2 -228.4,428.2 -228.4,428.2 -228.5,428.3 -228.5,428.3 -228.5,428.4 -228.6,428.4 -228.6,428.4 
		-228.7,428.4 -228.7,428.5 -228.8,428.5 -228.8,428.5 -228.9,428.5 -228.9,428.5 -229,428.5 -229,428.5 -229.1,428.5 -229.1,428.5 
		-229.2,428.5 -229.3,428.5 -229.3,428.5 -229.4,428.5 -229.4,428.5 -229.5,428.5 -229.5,428.4 -229.6,428.4 -229.6,428.4 
		-229.6,428.4 -229.7,428.3 -229.7,428.3 -229.8,428.2 -229.8,428.2 -229.8,428.2 -229.8,428.1 -229.9,428.1 -229.9,428 -229.9,428 
		-229.9,427.9 -229.9,427.9 -229.9,427.8 -229.9,427.8 -229.9,427.7 -229.9,427.7 -229.9,427.7 -229.9,427.6 -229.9,427.6 
		-229.9,427.5 -229.8,427.5 -229.8,427.4 -229.8,427.4 -229.8,427.3 -229.7,427.3 -229.7,427.3 -229.6,427.2 -229.6,427.2 
		-229.6,427.2 -229.5,427.2 -229.5,427.1 -229.4,427.1 -229.4,427.1 -229.3,427.1 -229.3,427.1 -229.2,427.1 -229.1,427.1 
		-229.1,427.1 -229,427.1 -229,427.1 -228.9,427.1 -228.9,427.1 -228.8,427.1 -228.8,427.1 -228.7,427.1 -228.7,427.2 -228.6,427.2 
		-228.6,427.2 -228.5,427.2 -228.5,427.3 -228.5,427.3 -228.4,427.3 -228.4,427.4 -228.4,427.4 -228.3,427.5 -228.3,427.5 
		-228.3,427.6 -228.3,427.6 -228.3,427.7 -228.3,427.7 	"/>
	<path d="M-186.5,409.2l0.3,0.2l0.3,0.1l0.3,0l0.3,0l0.3-0.1l0.3-0.1l0.3-0.2l3.2-5.8l0.1-0.3l0-0.4l-0.1-0.4l-0.2-0.3l-0.3-0.3
		l-0.3-0.2l-0.4-0.1l-0.4,0l-0.4,0.1l-0.4,0.2l-0.3,0.2l-0.2,0.3l-3.2,5.8l0,0.3l0.1,0.3l0.1,0.3l0.2,0.2L-186.5,409.2z
		 M-179.1,399.3l0.2-0.3l5.7-10.5l0.1-0.3l0-0.4l-0.1-0.4l-0.2-0.3l-0.3-0.3l-0.3-0.2l-0.4-0.1l-0.4,0l-0.4,0.1l-0.4,0.2l-0.3,0.2
		l-0.2,0.3l-5.7,10.5l-0.1,0.3l0,0.4l0.1,0.4l0.2,0.3l0.3,0.3l0.3,0.2l0.4,0.1l0.4,0l0.4-0.1l0.4-0.2L-179.1,399.3z M-168.7,386.5
		l-14.5,26.8l-2.6,0.3l-2.6,0l-2.6-0.2l-2.5-0.4l-2.5-0.7l-2.4-0.9l-2.3-1.1l-2.1-1.3l-2-1.5l-1.8-1.6l-1.6-1.8l-1.4-1.9l14.5-26.8
		l-3.2-1.4l1-1.8l2.9,0.8l2.9,0.9l2.8,1l2.8,1l2.8,1.1l2.8,1.1l2.7,1.2l2.7,1.2l2.7,1.3l2.6,1.3l2.6,1.4l2.5,1.5l-1,1.8
		L-168.7,386.5z"/>
	<polygon points="-196.8,414.5 -198.3,413.8 -199.7,416.2 -204.5,416.2 -202.2,412.1 -203.7,411.5 -203,410.3 -202.5,410.6 
		-202,410.9 -201.5,411.2 -200.9,411.5 -200.3,411.8 -199.8,412.1 -199.2,412.3 -198.6,412.5 -198,412.7 -197.3,412.9 -196.7,413.1 
		-196.1,413.2 	"/>
	<polygon points="-242,423.3 -242.1,423.3 -242.1,423.2 -242.2,423.2 -242.2,423.2 -242.2,423.1 -242.3,423.1 -242.3,423.1 
		-242.3,423 -242.4,423 -242.4,422.9 -242.4,422.9 -242.4,422.8 -242.4,422.8 -242.4,422.7 -242.4,422.7 -242.4,422.6 -242.4,422.6 
		-242.4,422.6 -242.4,422.5 -242.4,422.5 -242.4,422.4 -242.4,422.4 -242.4,422.3 -242.3,422.3 -242.3,422.2 -242.3,422.2 
		-242.2,422.2 -242.2,422.1 -242.2,422.1 -242.1,422.1 -242.1,422 -242,422 -242,422 -241.9,422 -241.9,421.9 -241.8,421.9 
		-241.8,421.9 -241.7,421.9 -241.7,421.9 -241.6,421.9 -241.6,421.9 -241.5,421.9 -241.4,421.9 -241.4,421.9 -241.3,421.9 
		-241.3,422 -241.2,422 -241.2,422 -241.1,422 -241.1,422.1 -241.1,422.1 -241,422.1 -241,422.2 -240.9,422.2 -240.9,422.2 
		-240.9,422.3 -240.9,422.3 -240.8,422.4 -240.8,422.4 -240.8,422.5 -240.8,422.5 -240.8,422.6 -240.8,422.6 -240.8,422.6 
		-240.8,422.7 -240.8,422.7 -240.8,422.8 -240.8,422.8 -240.8,422.9 -240.8,422.9 -240.9,423 -240.9,423 -240.9,423.1 -240.9,423.1 
		-241,423.1 -241,423.2 -241.1,423.2 -241.1,423.2 -241.1,423.3 -241.2,423.3 -241.2,423.3 -241.3,423.3 -241.3,423.3 -241.4,423.4 
		-241.4,423.4 -241.5,423.4 -241.6,423.4 -241.6,423.4 -241.7,423.4 -241.7,423.4 -241.8,423.4 -241.8,423.4 -241.9,423.3 
		-241.9,423.3 -242,423.3 	"/>
	<polygon points="-235.3,424.9 -235.4,424.9 -235.4,424.9 -235.5,424.9 -235.6,424.8 -235.6,424.8 -235.7,424.8 -235.7,424.8 
		-235.8,424.8 -235.8,424.7 -235.9,424.7 -235.9,424.7 -235.9,424.7 -236,424.6 -236,424.6 -236,424.5 -236.1,424.5 -236.1,424.5 
		-236.1,424.4 -236.1,424.4 -236.2,424.3 -236.2,424.3 -236.2,424.2 -236.2,424.2 -236.2,424.1 -236.2,424.1 -236.2,424 -236.2,424 
		-236.2,423.9 -236.1,423.9 -236.1,423.8 -236.1,423.8 -236.1,423.8 -236,423.7 -236,423.7 -236,423.6 -235.9,423.6 -235.9,423.6 
		-235.9,423.5 -235.8,423.5 -235.8,423.5 -235.7,423.5 -235.7,423.4 -235.6,423.4 -235.6,423.4 -235.5,423.4 -235.4,423.4 
		-235.4,423.4 -235.3,423.4 -235.3,423.4 -235.2,423.4 -235.2,423.4 -235.1,423.4 -235.1,423.4 -235,423.4 -235,423.5 -234.9,423.5 
		-234.9,423.5 -234.8,423.5 -234.8,423.6 -234.7,423.6 -234.7,423.6 -234.7,423.7 -234.6,423.7 -234.6,423.8 -234.6,423.8 
		-234.6,423.8 -234.5,423.9 -234.5,423.9 -234.5,424 -234.5,424 -234.5,424.1 -234.5,424.1 -234.5,424.2 -234.5,424.2 -234.5,424.3 
		-234.5,424.3 -234.5,424.4 -234.6,424.4 -234.6,424.5 -234.6,424.5 -234.6,424.5 -234.7,424.6 -234.7,424.6 -234.7,424.7 
		-234.8,424.7 -234.8,424.7 -234.9,424.7 -234.9,424.8 -235,424.8 -235,424.8 -235.1,424.8 -235.1,424.8 -235.2,424.9 -235.2,424.9 
		-235.3,424.9 	"/>
	<polygon points="-231.5,425 -231.5,425 -231.6,425.1 -231.6,425.1 -231.6,425.2 -231.6,425.2 -231.7,425.2 -231.7,425.3 
		-231.7,425.3 -231.8,425.4 -231.8,425.4 -231.8,425.4 -231.9,425.5 -231.9,425.5 -232,425.5 -232,425.5 -232.1,425.5 -232.1,425.6 
		-232.2,425.6 -232.2,425.6 -232.3,425.6 -232.4,425.6 -232.4,425.6 -232.5,425.6 -232.5,425.6 -232.6,425.6 -232.6,425.5 
		-232.7,425.5 -232.7,425.5 -232.8,425.5 -232.8,425.5 -232.9,425.4 -232.9,425.4 -233,425.4 -233,425.3 -233,425.3 -233.1,425.2 
		-233.1,425.2 -233.1,425.2 -233.1,425.1 -233.2,425.1 -233.2,425 -233.2,425 -233.2,424.9 -233.2,424.9 -233.2,424.8 -233.2,424.8 
		-233.2,424.7 -233.2,424.7 -233.2,424.6 -233.2,424.6 -233.1,424.6 -233.1,424.5 -233.1,424.5 -233.1,424.4 -233,424.4 -233,424.3 
		-233,424.3 -232.9,424.3 -232.9,424.2 -232.8,424.2 -232.8,424.2 -232.7,424.2 -232.7,424.2 -232.6,424.1 -232.6,424.1 
		-232.5,424.1 -232.5,424.1 -232.4,424.1 -232.4,424.1 -232.3,424.1 -232.2,424.1 -232.2,424.1 -232.1,424.1 -232.1,424.1 
		-232,424.2 -232,424.2 -231.9,424.2 -231.9,424.2 -231.8,424.2 -231.8,424.3 -231.8,424.3 -231.7,424.3 -231.7,424.4 -231.7,424.4 
		-231.6,424.5 -231.6,424.5 -231.6,424.6 -231.6,424.6 -231.5,424.6 -231.5,424.7 -231.5,424.7 -231.5,424.8 -231.5,424.8 
		-231.5,424.9 -231.5,424.9 	"/>
	<polygon points="-243.8,422.1 -243.8,422.1 -243.8,422.2 -243.8,422.2 -243.8,422.3 -243.9,422.3 -243.9,422.4 -243.9,422.4 
		-244,422.4 -244,422.5 -244,422.5 -244.1,422.5 -244.1,422.6 -244.2,422.6 -244.2,422.6 -244.3,422.6 -244.3,422.6 -244.4,422.7 
		-244.4,422.7 -244.5,422.7 -244.5,422.7 -244.6,422.7 -244.6,422.7 -244.7,422.7 -244.8,422.7 -244.8,422.7 -244.9,422.6 
		-244.9,422.6 -245,422.6 -245,422.6 -245.1,422.6 -245.1,422.5 -245.1,422.5 -245.2,422.5 -245.2,422.4 -245.3,422.4 -245.3,422.4 
		-245.3,422.3 -245.3,422.3 -245.4,422.2 -245.4,422.2 -245.4,422.1 -245.4,422.1 -245.4,422 -245.4,422 -245.4,421.9 -245.4,421.9 
		-245.4,421.8 -245.4,421.8 -245.4,421.7 -245.4,421.7 -245.4,421.7 -245.3,421.6 -245.3,421.6 -245.3,421.5 -245.3,421.5 
		-245.2,421.5 -245.2,421.4 -245.1,421.4 -245.1,421.4 -245.1,421.3 -245,421.3 -245,421.3 -244.9,421.3 -244.9,421.2 -244.8,421.2 
		-244.8,421.2 -244.7,421.2 -244.6,421.2 -244.6,421.2 -244.5,421.2 -244.5,421.2 -244.4,421.2 -244.4,421.2 -244.3,421.2 
		-244.3,421.3 -244.2,421.3 -244.2,421.3 -244.1,421.3 -244.1,421.4 -244,421.4 -244,421.4 -244,421.5 -243.9,421.5 -243.9,421.5 
		-243.9,421.6 -243.8,421.6 -243.8,421.7 -243.8,421.7 -243.8,421.7 -243.8,421.8 -243.8,421.8 -243.8,421.9 -243.8,421.9 
		-243.8,422 -243.8,422 	"/>
	<polygon points="-237.6,423.5 -237.7,423.6 -237.7,423.6 -237.7,423.7 -237.7,423.7 -237.7,423.8 -237.8,423.8 -237.8,423.8 
		-237.8,423.9 -237.9,423.9 -237.9,423.9 -238,424 -238,424 -238.1,424 -238.1,424.1 -238.2,424.1 -238.2,424.1 -238.3,424.1 
		-238.3,424.1 -238.4,424.1 -238.4,424.1 -238.5,424.1 -238.5,424.1 -238.6,424.1 -238.6,424.1 -238.7,424.1 -238.7,424.1 
		-238.8,424.1 -238.8,424.1 -238.9,424 -238.9,424 -239,424 -239,423.9 -239.1,423.9 -239.1,423.9 -239.1,423.8 -239.2,423.8 
		-239.2,423.8 -239.2,423.7 -239.3,423.7 -239.3,423.6 -239.3,423.6 -239.3,423.5 -239.3,423.5 -239.3,423.4 -239.3,423.4 
		-239.3,423.3 -239.3,423.3 -239.3,423.2 -239.3,423.2 -239.3,423.1 -239.3,423.1 -239.2,423.1 -239.2,423 -239.2,423 -239.1,422.9 
		-239.1,422.9 -239.1,422.9 -239,422.8 -239,422.8 -238.9,422.8 -238.9,422.7 -238.8,422.7 -238.8,422.7 -238.7,422.7 -238.7,422.7 
		-238.6,422.7 -238.6,422.7 -238.5,422.6 -238.5,422.6 -238.4,422.6 -238.4,422.7 -238.3,422.7 -238.3,422.7 -238.2,422.7 
		-238.2,422.7 -238.1,422.7 -238.1,422.7 -238,422.8 -238,422.8 -237.9,422.8 -237.9,422.9 -237.8,422.9 -237.8,422.9 -237.8,423 
		-237.7,423 -237.7,423.1 -237.7,423.1 -237.7,423.1 -237.7,423.2 -237.6,423.2 -237.6,423.3 -237.6,423.3 -237.6,423.4 
		-237.6,423.4 -237.6,423.5 	"/>
	<polygon points="-228.2,425.8 -228.3,425.8 -228.3,425.9 -228.3,425.9 -228.3,425.9 -228.3,426 -228.4,426 -228.4,426.1 
		-228.4,426.1 -228.5,426.1 -228.5,426.2 -228.6,426.2 -228.6,426.2 -228.7,426.3 -228.7,426.3 -228.8,426.3 -228.8,426.3 
		-228.9,426.3 -228.9,426.3 -229,426.3 -229,426.4 -229.1,426.4 -229.1,426.4 -229.2,426.3 -229.2,426.3 -229.3,426.3 -229.3,426.3 
		-229.4,426.3 -229.4,426.3 -229.5,426.3 -229.5,426.2 -229.6,426.2 -229.6,426.2 -229.7,426.1 -229.7,426.1 -229.7,426.1 
		-229.8,426 -229.8,426 -229.8,425.9 -229.8,425.9 -229.9,425.9 -229.9,425.8 -229.9,425.8 -229.9,425.7 -229.9,425.7 -229.9,425.6 
		-229.9,425.6 -229.9,425.5 -229.9,425.5 -229.9,425.4 -229.9,425.4 -229.8,425.3 -229.8,425.3 -229.8,425.2 -229.8,425.2 
		-229.7,425.2 -229.7,425.1 -229.7,425.1 -229.6,425.1 -229.6,425 -229.5,425 -229.5,425 -229.4,424.9 -229.4,424.9 -229.3,424.9 
		-229.3,424.9 -229.2,424.9 -229.2,424.9 -229.1,424.9 -229.1,424.9 -229,424.9 -229,424.9 -228.9,424.9 -228.9,424.9 -228.8,424.9 
		-228.8,424.9 -228.7,424.9 -228.7,425 -228.6,425 -228.6,425 -228.5,425.1 -228.5,425.1 -228.4,425.1 -228.4,425.2 -228.4,425.2 
		-228.3,425.2 -228.3,425.3 -228.3,425.3 -228.3,425.4 -228.3,425.4 -228.2,425.5 -228.2,425.5 -228.2,425.6 -228.2,425.6 
		-228.2,425.7 -228.2,425.7 	"/>
	<polygon points="-228.3,429.6 -228.3,429.7 -228.3,429.7 -228.3,429.8 -228.3,429.8 -228.3,429.8 -228.3,429.9 -228.3,429.9 
		-228.3,430 -228.3,430 -228.3,430.1 -228.3,430.1 -228.3,430.2 -228.4,430.2 -228.4,430.3 -228.4,430.3 -228.5,430.3 -228.5,430.4 
		-228.5,430.4 -228.6,430.4 -228.6,430.5 -228.7,430.5 -228.7,430.5 -228.8,430.5 -228.8,430.6 -228.9,430.6 -228.9,430.6 
		-229,430.6 -229,430.6 -229.1,430.6 -229.2,430.6 -229.2,430.6 -229.3,430.6 -229.3,430.6 -229.4,430.6 -229.4,430.5 -229.5,430.5 
		-229.5,430.5 -229.6,430.5 -229.6,430.4 -229.6,430.4 -229.7,430.4 -229.7,430.3 -229.8,430.3 -229.8,430.3 -229.8,430.2 
		-229.8,430.2 -229.9,430.1 -229.9,430.1 -229.9,430 -229.9,430 -229.9,429.9 -229.9,429.9 -229.9,429.8 -229.9,429.8 -229.9,429.8 
		-229.9,429.7 -229.9,429.7 -229.9,429.6 -229.9,429.6 -229.8,429.5 -229.8,429.5 -229.8,429.4 -229.8,429.4 -229.7,429.4 
		-229.7,429.3 -229.6,429.3 -229.6,429.3 -229.6,429.2 -229.5,429.2 -229.5,429.2 -229.4,429.2 -229.4,429.1 -229.3,429.1 
		-229.3,429.1 -229.2,429.1 -229.2,429.1 -229.1,429.1 -229,429.1 -229,429.1 -228.9,429.1 -228.9,429.1 -228.8,429.1 -228.8,429.2 
		-228.7,429.2 -228.7,429.2 -228.6,429.2 -228.6,429.3 -228.5,429.3 -228.5,429.3 -228.5,429.4 -228.4,429.4 -228.4,429.4 
		-228.4,429.5 -228.3,429.5 -228.3,429.6 	"/>
	<polygon points="-237.9,431.6 -237.8,431.6 -237.8,431.7 -237.8,431.7 -237.7,431.7 -237.7,431.8 -237.7,431.8 -237.7,431.9 
		-237.7,431.9 -237.7,432 -237.7,432 -237.7,432.1 -237.7,432.1 -237.7,432.2 -237.7,432.2 -237.7,432.3 -237.7,432.3 -237.7,432.4 
		-237.7,432.4 -237.8,432.4 -237.8,432.5 -237.8,432.5 -237.9,432.6 -237.9,432.6 -237.9,432.6 -238,432.7 -238,432.7 -238.1,432.7 
		-238.1,432.7 -238.2,432.8 -238.2,432.8 -238.3,432.8 -238.3,432.8 -238.4,432.8 -238.4,432.8 -238.5,432.8 -238.6,432.8 
		-238.6,432.8 -238.7,432.8 -238.7,432.8 -238.8,432.8 -238.8,432.8 -238.9,432.7 -238.9,432.7 -239,432.7 -239,432.7 -239.1,432.6 
		-239.1,432.6 -239.1,432.6 -239.2,432.5 -239.2,432.5 -239.2,432.4 -239.2,432.4 -239.3,432.4 -239.3,432.3 -239.3,432.3 
		-239.3,432.2 -239.3,432.2 -239.3,432.1 -239.3,432.1 -239.3,432 -239.3,432 -239.3,431.9 -239.3,431.9 -239.3,431.8 -239.3,431.8 
		-239.2,431.7 -239.2,431.7 -239.2,431.7 -239.2,431.6 -239.1,431.6 -239.1,431.5 -239.1,431.5 -239,431.5 -239,431.5 -238.9,431.4 
		-238.9,431.4 -238.8,431.4 -238.8,431.4 -238.7,431.4 -238.7,431.3 -238.6,431.3 -238.6,431.3 -238.5,431.3 -238.4,431.3 
		-238.4,431.3 -238.3,431.3 -238.3,431.4 -238.2,431.4 -238.2,431.4 -238.1,431.4 -238.1,431.4 -238,431.5 -238,431.5 -237.9,431.5 
		-237.9,431.5 	"/>
	<polygon points="-240.8,432.6 -240.8,432.6 -240.8,432.7 -240.8,432.7 -240.8,432.8 -240.8,432.8 -240.8,432.9 -240.8,432.9 
		-240.8,433 -240.8,433 -240.8,433.1 -240.9,433.1 -240.9,433.1 -240.9,433.2 -240.9,433.2 -241,433.3 -241,433.3 -241,433.3 
		-241.1,433.4 -241.1,433.4 -241.2,433.4 -241.2,433.5 -241.3,433.5 -241.3,433.5 -241.4,433.5 -241.4,433.5 -241.5,433.5 
		-241.5,433.5 -241.6,433.6 -241.6,433.6 -241.7,433.6 -241.7,433.5 -241.8,433.5 -241.8,433.5 -241.9,433.5 -242,433.5 -242,433.5 
		-242,433.5 -242.1,433.4 -242.1,433.4 -242.2,433.4 -242.2,433.3 -242.3,433.3 -242.3,433.3 -242.3,433.2 -242.4,433.2 
		-242.4,433.1 -242.4,433.1 -242.4,433.1 -242.4,433 -242.5,433 -242.5,432.9 -242.5,432.9 -242.5,432.8 -242.5,432.8 -242.5,432.7 
		-242.5,432.7 -242.4,432.6 -242.4,432.6 -242.4,432.5 -242.4,432.5 -242.4,432.4 -242.3,432.4 -242.3,432.4 -242.3,432.3 
		-242.2,432.3 -242.2,432.3 -242.1,432.2 -242.1,432.2 -242,432.2 -242,432.1 -242,432.1 -241.9,432.1 -241.8,432.1 -241.8,432.1 
		-241.7,432.1 -241.7,432.1 -241.6,432.1 -241.6,432.1 -241.5,432.1 -241.5,432.1 -241.4,432.1 -241.4,432.1 -241.3,432.1 
		-241.3,432.1 -241.2,432.2 -241.2,432.2 -241.1,432.2 -241.1,432.3 -241,432.3 -241,432.3 -241,432.4 -240.9,432.4 -240.9,432.4 
		-240.9,432.5 -240.9,432.5 	"/>
	<polygon points="-243.8,433.3 -243.8,433.3 -243.8,433.4 -243.8,433.4 -243.8,433.5 -243.8,433.5 -243.8,433.6 -243.8,433.6 
		-243.8,433.7 -243.8,433.7 -243.8,433.8 -243.8,433.8 -243.9,433.8 -243.9,433.9 -243.9,433.9 -243.9,434 -244,434 -244,434 
		-244.1,434.1 -244.1,434.1 -244.1,434.1 -244.2,434.2 -244.2,434.2 -244.3,434.2 -244.3,434.2 -244.4,434.2 -244.5,434.2 
		-244.5,434.3 -244.6,434.3 -244.6,434.3 -244.7,434.3 -244.7,434.3 -244.8,434.2 -244.8,434.2 -244.9,434.2 -244.9,434.2 
		-245,434.2 -245,434.2 -245.1,434.1 -245.1,434.1 -245.2,434.1 -245.2,434 -245.2,434 -245.3,434 -245.3,433.9 -245.3,433.9 
		-245.4,433.8 -245.4,433.8 -245.4,433.8 -245.4,433.7 -245.4,433.7 -245.4,433.6 -245.5,433.6 -245.5,433.5 -245.5,433.5 
		-245.4,433.4 -245.4,433.4 -245.4,433.3 -245.4,433.3 -245.4,433.2 -245.4,433.2 -245.3,433.1 -245.3,433.1 -245.3,433.1 
		-245.2,433 -245.2,433 -245.2,433 -245.1,432.9 -245.1,432.9 -245,432.9 -245,432.9 -244.9,432.8 -244.9,432.8 -244.8,432.8 
		-244.8,432.8 -244.7,432.8 -244.7,432.8 -244.6,432.8 -244.6,432.8 -244.5,432.8 -244.5,432.8 -244.4,432.8 -244.3,432.8 
		-244.3,432.8 -244.2,432.9 -244.2,432.9 -244.1,432.9 -244.1,432.9 -244.1,433 -244,433 -244,433 -243.9,433.1 -243.9,433.1 
		-243.9,433.1 -243.9,433.2 -243.8,433.2 	"/>
	<polygon points="-238,427.7 -238,427.8 -238,427.8 -238,427.9 -238,427.9 -238,428 -238,428 -238,428.1 -238.1,428.1 -238.1,428.2 
		-238.1,428.2 -238.2,428.2 -238.2,428.3 -238.2,428.3 -238.3,428.4 -238.3,428.4 -238.4,428.4 -238.4,428.4 -238.5,428.5 
		-238.5,428.5 -238.6,428.5 -238.6,428.5 -238.7,428.5 -238.7,428.5 -238.8,428.5 -238.8,428.5 -238.9,428.5 -238.9,428.5 
		-239,428.5 -239,428.5 -239.1,428.5 -239.1,428.5 -239.2,428.5 -239.2,428.4 -239.3,428.4 -239.3,428.4 -239.4,428.4 -239.4,428.3 
		-239.5,428.3 -239.5,428.2 -239.5,428.2 -239.6,428.2 -239.6,428.1 -239.6,428.1 -239.6,428 -239.6,428 -239.7,427.9 -239.7,427.9 
		-239.7,427.8 -239.7,427.8 -239.7,427.7 -239.7,427.7 -239.7,427.7 -239.6,427.6 -239.6,427.6 -239.6,427.5 -239.6,427.5 
		-239.6,427.4 -239.5,427.4 -239.5,427.3 -239.5,427.3 -239.4,427.3 -239.4,427.2 -239.3,427.2 -239.3,427.2 -239.2,427.2 
		-239.2,427.1 -239.1,427.1 -239.1,427.1 -239,427.1 -239,427.1 -238.9,427.1 -238.9,427.1 -238.8,427.1 -238.8,427.1 -238.7,427.1 
		-238.7,427.1 -238.6,427.1 -238.6,427.1 -238.5,427.1 -238.5,427.1 -238.4,427.2 -238.4,427.2 -238.3,427.2 -238.3,427.2 
		-238.2,427.3 -238.2,427.3 -238.2,427.3 -238.1,427.4 -238.1,427.4 -238.1,427.5 -238,427.5 -238,427.6 -238,427.6 -238,427.7 
		-238,427.7 	"/>
	<polygon points="-241.9,427.1 -241.9,427.1 -241.8,427.1 -241.7,427.1 -241.7,427.1 -241.6,427.2 -241.6,427.2 -241.6,427.2 
		-241.5,427.2 -241.5,427.3 -241.4,427.3 -241.4,427.3 -241.4,427.4 -241.3,427.4 -241.3,427.5 -241.3,427.5 -241.3,427.6 
		-241.3,427.6 -241.2,427.7 -241.2,427.7 -241.2,427.7 -241.2,427.8 -241.2,427.8 -241.2,427.9 -241.2,427.9 -241.3,428 -241.3,428 
		-241.3,428.1 -241.3,428.1 -241.3,428.2 -241.4,428.2 -241.4,428.2 -241.4,428.3 -241.5,428.3 -241.5,428.4 -241.6,428.4 
		-241.6,428.4 -241.6,428.4 -241.7,428.5 -241.7,428.5 -241.8,428.5 -241.9,428.5 -241.9,428.5 -242,428.5 -242,428.5 -242.1,428.5 
		-242.1,428.5 -242.2,428.5 -242.2,428.5 -242.3,428.5 -242.3,428.5 -242.4,428.5 -242.4,428.5 -242.5,428.4 -242.5,428.4 
		-242.6,428.4 -242.6,428.4 -242.7,428.3 -242.7,428.3 -242.7,428.2 -242.8,428.2 -242.8,428.2 -242.8,428.1 -242.8,428.1 
		-242.9,428 -242.9,428 -242.9,427.9 -242.9,427.9 -242.9,427.8 -242.9,427.8 -242.9,427.7 -242.9,427.7 -242.9,427.7 -242.9,427.6 
		-242.9,427.6 -242.8,427.5 -242.8,427.5 -242.8,427.4 -242.8,427.4 -242.7,427.3 -242.7,427.3 -242.7,427.3 -242.6,427.2 
		-242.6,427.2 -242.5,427.2 -242.5,427.2 -242.4,427.1 -242.4,427.1 -242.3,427.1 -242.3,427.1 -242.2,427.1 -242.2,427.1 
		-242.1,427.1 -242.1,427.1 -242,427.1 -242,427.1 	"/>
	<polygon points="-244.3,427.7 -244.3,427.8 -244.3,427.8 -244.3,427.9 -244.3,427.9 -244.3,428 -244.4,428 -244.4,428.1 
		-244.4,428.1 -244.4,428.2 -244.5,428.2 -244.5,428.2 -244.5,428.3 -244.6,428.3 -244.6,428.4 -244.6,428.4 -244.7,428.4 
		-244.7,428.4 -244.8,428.5 -244.8,428.5 -244.9,428.5 -244.9,428.5 -245,428.5 -245,428.5 -245.1,428.5 -245.2,428.5 -245.2,428.5 
		-245.3,428.5 -245.3,428.5 -245.4,428.5 -245.4,428.5 -245.5,428.5 -245.5,428.5 -245.6,428.4 -245.6,428.4 -245.7,428.4 
		-245.7,428.4 -245.8,428.3 -245.8,428.3 -245.8,428.2 -245.9,428.2 -245.9,428.2 -245.9,428.1 -245.9,428.1 -246,428 -246,428 
		-246,427.9 -246,427.9 -246,427.8 -246,427.8 -246,427.7 -246,427.7 -246,427.7 -246,427.6 -246,427.6 -245.9,427.5 -245.9,427.5 
		-245.9,427.4 -245.9,427.4 -245.8,427.3 -245.8,427.3 -245.8,427.3 -245.7,427.2 -245.7,427.2 -245.6,427.2 -245.6,427.2 
		-245.5,427.1 -245.5,427.1 -245.4,427.1 -245.4,427.1 -245.3,427.1 -245.3,427.1 -245.2,427.1 -245.2,427.1 -245.1,427.1 
		-245,427.1 -245,427.1 -244.9,427.1 -244.9,427.1 -244.8,427.1 -244.8,427.1 -244.7,427.2 -244.7,427.2 -244.6,427.2 -244.6,427.2 
		-244.6,427.3 -244.5,427.3 -244.5,427.3 -244.5,427.4 -244.4,427.4 -244.4,427.5 -244.4,427.5 -244.4,427.6 -244.3,427.6 
		-244.3,427.7 -244.3,427.7 	"/>
	<polygon points="-232.7,427.1 -232.7,427.1 -232.6,427.1 -232.5,427.1 -232.5,427.1 -232.4,427.1 -232.4,427.1 -232.3,427.1 
		-232.3,427.1 -232.2,427.1 -232.2,427.1 -232.1,427.1 -232.1,427.2 -232,427.2 -232,427.2 -231.9,427.2 -231.9,427.3 -231.9,427.3 
		-231.8,427.3 -231.8,427.4 -231.8,427.4 -231.7,427.5 -231.7,427.5 -231.7,427.6 -231.7,427.6 -231.7,427.7 -231.7,427.7 
		-231.7,427.7 -231.7,427.8 -231.7,427.8 -231.7,427.9 -231.7,427.9 -231.7,428 -231.7,428 -231.7,428.1 -231.7,428.1 -231.8,428.2 
		-231.8,428.2 -231.8,428.2 -231.9,428.3 -231.9,428.3 -231.9,428.4 -232,428.4 -232,428.4 -232.1,428.4 -232.1,428.5 -232.2,428.5 
		-232.2,428.5 -232.3,428.5 -232.3,428.5 -232.4,428.5 -232.4,428.5 -232.5,428.5 -232.5,428.5 -232.6,428.5 -232.7,428.5 
		-232.7,428.5 -232.8,428.5 -232.8,428.5 -232.9,428.5 -232.9,428.4 -233,428.4 -233,428.4 -233,428.4 -233.1,428.3 -233.1,428.3 
		-233.2,428.2 -233.2,428.2 -233.2,428.2 -233.2,428.1 -233.3,428.1 -233.3,428 -233.3,428 -233.3,427.9 -233.3,427.9 -233.3,427.8 
		-233.3,427.8 -233.3,427.7 -233.3,427.7 -233.3,427.7 -233.3,427.6 -233.3,427.6 -233.3,427.5 -233.2,427.5 -233.2,427.4 
		-233.2,427.4 -233.2,427.3 -233.1,427.3 -233.1,427.3 -233,427.2 -233,427.2 -233,427.2 -232.9,427.2 -232.9,427.1 -232.8,427.1 
		-232.8,427.1 	"/>
	<polygon points="-231.6,430.4 -231.6,430.4 -231.6,430.5 -231.5,430.5 -231.5,430.6 -231.5,430.6 -231.5,430.7 -231.5,430.7 
		-231.6,430.8 -231.6,430.8 -231.6,430.9 -231.6,430.9 -231.6,431 -231.7,431 -231.7,431 -231.7,431.1 -231.7,431.1 -231.8,431.1 
		-231.8,431.2 -231.9,431.2 -231.9,431.2 -232,431.3 -232,431.3 -232.1,431.3 -232.1,431.3 -232.2,431.3 -232.2,431.4 -232.3,431.4 
		-232.3,431.4 -232.4,431.4 -232.4,431.4 -232.5,431.4 -232.5,431.4 -232.6,431.3 -232.6,431.3 -232.7,431.3 -232.7,431.3 
		-232.8,431.3 -232.8,431.2 -232.9,431.2 -232.9,431.2 -233,431.1 -233,431.1 -233,431.1 -233.1,431 -233.1,431 -233.1,431 
		-233.2,430.9 -233.2,430.9 -233.2,430.8 -233.2,430.8 -233.2,430.7 -233.2,430.7 -233.2,430.6 -233.2,430.6 -233.2,430.5 
		-233.2,430.5 -233.2,430.4 -233.2,430.4 -233.2,430.3 -233.1,430.3 -233.1,430.3 -233.1,430.2 -233,430.2 -233,430.1 -233,430.1 
		-232.9,430.1 -232.9,430 -232.8,430 -232.8,430 -232.7,430 -232.7,429.9 -232.6,429.9 -232.6,429.9 -232.5,429.9 -232.5,429.9 
		-232.4,429.9 -232.4,429.9 -232.3,429.9 -232.3,429.9 -232.2,429.9 -232.2,429.9 -232.1,429.9 -232.1,429.9 -232,430 -232,430 
		-231.9,430 -231.9,430 -231.8,430.1 -231.8,430.1 -231.7,430.1 -231.7,430.2 -231.7,430.2 -231.7,430.3 -231.6,430.3 -231.6,430.3 
			"/>
	<polygon points="-234.6,431.1 -234.6,431.1 -234.5,431.2 -234.5,431.2 -234.5,431.3 -234.5,431.3 -234.5,431.4 -234.5,431.4 
		-234.5,431.5 -234.6,431.5 -234.6,431.6 -234.6,431.6 -234.6,431.7 -234.6,431.7 -234.7,431.7 -234.7,431.8 -234.7,431.8 
		-234.8,431.9 -234.8,431.9 -234.9,431.9 -234.9,431.9 -234.9,432 -235,432 -235,432 -235.1,432 -235.1,432 -235.2,432.1 
		-235.3,432.1 -235.3,432.1 -235.4,432.1 -235.4,432.1 -235.5,432.1 -235.5,432.1 -235.6,432 -235.6,432 -235.7,432 -235.7,432 
		-235.8,432 -235.8,431.9 -235.9,431.9 -235.9,431.9 -236,431.9 -236,431.8 -236,431.8 -236.1,431.7 -236.1,431.7 -236.1,431.7 
		-236.1,431.6 -236.2,431.6 -236.2,431.5 -236.2,431.5 -236.2,431.4 -236.2,431.4 -236.2,431.3 -236.2,431.3 -236.2,431.2 
		-236.2,431.2 -236.2,431.1 -236.2,431.1 -236.1,431 -236.1,431 -236.1,431 -236.1,430.9 -236,430.9 -236,430.8 -236,430.8 
		-235.9,430.8 -235.9,430.7 -235.8,430.7 -235.8,430.7 -235.7,430.7 -235.7,430.6 -235.6,430.6 -235.6,430.6 -235.5,430.6 
		-235.5,430.6 -235.4,430.6 -235.4,430.6 -235.3,430.6 -235.3,430.6 -235.2,430.6 -235.1,430.6 -235.1,430.6 -235,430.6 -235,430.7 
		-234.9,430.7 -234.9,430.7 -234.9,430.7 -234.8,430.8 -234.8,430.8 -234.7,430.8 -234.7,430.9 -234.7,430.9 -234.6,431 -234.6,431 
		-234.6,431 	"/>
	<polygon points="-234.7,427.7 -234.7,427.8 -234.7,427.8 -234.7,427.9 -234.8,427.9 -234.8,428 -234.8,428 -234.8,428.1 
		-234.8,428.1 -234.9,428.2 -234.9,428.2 -234.9,428.2 -234.9,428.3 -235,428.3 -235,428.4 -235.1,428.4 -235.1,428.4 -235.2,428.4 
		-235.2,428.5 -235.3,428.5 -235.3,428.5 -235.4,428.5 -235.4,428.5 -235.5,428.5 -235.5,428.5 -235.6,428.5 -235.6,428.5 
		-235.7,428.5 -235.7,428.5 -235.8,428.5 -235.9,428.5 -235.9,428.5 -236,428.5 -236,428.4 -236,428.4 -236.1,428.4 -236.1,428.4 
		-236.2,428.3 -236.2,428.3 -236.2,428.2 -236.3,428.2 -236.3,428.2 -236.3,428.1 -236.4,428.1 -236.4,428 -236.4,428 -236.4,427.9 
		-236.4,427.9 -236.4,427.8 -236.4,427.8 -236.4,427.7 -236.4,427.7 -236.4,427.7 -236.4,427.6 -236.4,427.6 -236.4,427.5 
		-236.3,427.5 -236.3,427.4 -236.3,427.4 -236.2,427.3 -236.2,427.3 -236.2,427.3 -236.1,427.2 -236.1,427.2 -236,427.2 -236,427.2 
		-236,427.1 -235.9,427.1 -235.9,427.1 -235.8,427.1 -235.7,427.1 -235.7,427.1 -235.6,427.1 -235.6,427.1 -235.5,427.1 
		-235.5,427.1 -235.4,427.1 -235.4,427.1 -235.3,427.1 -235.3,427.1 -235.2,427.1 -235.2,427.2 -235.1,427.2 -235.1,427.2 
		-235,427.2 -235,427.3 -234.9,427.3 -234.9,427.3 -234.9,427.4 -234.9,427.4 -234.8,427.5 -234.8,427.5 -234.8,427.6 -234.8,427.6 
		-234.8,427.7 -234.7,427.7 	"/>
</g>
</svg>
