<?xml version="1.0" encoding="utf-8"?>
<!-- Generator: Adobe Illustrator 19.0.0, SVG Export Plug-In . SVG Version: 6.00 Build 0)  -->
<svg version="1.1" id="Layer_1" xmlns="http://www.w3.org/2000/svg" xmlns:xlink="http://www.w3.org/1999/xlink" x="0px" y="0px"
	 viewBox="0 0 100 100" style="enable-background:new 0 0 100 100;" xml:space="preserve">
<path id="XMLID_8_" d="M50,0C22.4,0,0,22.4,0,50c0,27.6,22.4,50,50,50c18.2,0,24.9-6.8,27.3-12.6c1.9-4.7,1.4-9.4,0.3-12.1l1.4-1.4
	c1.6-1.6,2.6-3.8,2.7-6c0.1-2.3-0.7-4.5-2.3-6l-6.5-6.5c-3.2-3.2-8.6-3-12,0.5L59.9,57C53.8,52,48,46.2,43,40.2l1.1-1.1
	c3.4-3.4,3.7-8.8,0.5-12l-6.5-6.5c-1.6-1.6-3.7-2.4-6-2.3c-2.2,0.1-4.4,1.1-6,2.7L22.1,25c-4.1,4.1-5,10.3-2.1,14.8
	c10.2,16.1,24.1,30,40.2,40.2c1.8,1.1,3.8,1.6,5.8,1.6c2.9,0,5.8-1.1,8.1-3.1c0.4,2,0.4,5-1.1,8.1c-3,6-11,9.2-23.1,9.2
	C24.7,95.8,4.2,75.3,4.2,50S24.7,4.2,50,4.2S95.8,24.7,95.8,50c0,9.3-2.8,18.3-8,25.9c-0.7,0.9-0.4,2.2,0.5,2.9
	c1,0.7,2.3,0.4,2.9-0.5C97,69.9,100,60.2,100,50C100,22.4,77.6,0,50,0z M62.4,76.5c-15.6-9.8-29.1-23.3-38.9-38.9
	c-1.8-2.9-1.1-6.9,1.6-9.6L29,24c0.9-0.9,2.1-1.5,3.3-1.5c0.1,0,0.2,0,0.2,0c1,0,2,0.4,2.6,1l6.5,6.5c1.6,1.6,1.3,4.3-0.5,6.1
	l-2.4,2.4c-0.8,0.8-0.8,1.9-0.2,2.8c5.8,7.3,12.8,14.2,20.1,20.1c0.8,0.7,2,0.6,2.8-0.2l2.4-2.4c1.8-1.8,4.6-2,6.1-0.5l6.5,6.5
	c0.7,0.7,1.1,1.7,1,2.9c-0.1,1.2-0.6,2.4-1.5,3.3L72,74.9C69.3,77.6,65.3,78.3,62.4,76.5z"/>
</svg>
