<?xml version="1.0" encoding="utf-8"?>
<!-- Generator: Adobe Illustrator 19.0.0, SVG Export Plug-In . SVG Version: 6.00 Build 0)  -->
<svg version="1.1" id="Layer_1" xmlns="http://www.w3.org/2000/svg" xmlns:xlink="http://www.w3.org/1999/xlink" x="0px" y="0px"
	 viewBox="0 0 100 100" style="enable-background:new 0 0 100 100;" xml:space="preserve">
<style type="text/css">
	.st0{fill-rule:evenodd;clip-rule:evenodd;}
	.st1{fill:#FED230;}
</style>
<path id="XMLID_3_" class="st0" d="M50,0C32.8,0,18.8,14,18.8,31.2C18.8,48.5,50,100,50,100s31.2-51.5,31.2-68.8
	C81.2,14,67.2,0,50,0z"/>
<path id="XMLID_1_" class="st1" d="M60.7,22.1c1.2-1.2,3.1-1.2,4.3,0l3.2,3.2c1.2,1.2,1.2,3.1,0,4.2L52.1,45.2
	c-1.2,1.2-3.1,1.2-4.3,0L31.9,29.5c-1.2-1.2-1.2-3.1,0-4.2l3.2-3.2c1.2-1.2,3.1-1.2,4.3,0l8.5,8.5c1.2,1.2,3.1,1.2,4.3,0L60.7,22.1z
	"/>
</svg>
