<?xml version="1.0" encoding="utf-8"?>
<!-- Generator: Adobe Illustrator 19.0.0, SVG Export Plug-In . SVG Version: 6.00 Build 0)  -->
<svg version="1.1" id="Layer_1" xmlns="http://www.w3.org/2000/svg" xmlns:xlink="http://www.w3.org/1999/xlink" x="0px" y="0px"
	 viewBox="0 0 100 100" style="enable-background:new 0 0 100 100;" xml:space="preserve">
<g>
	<path id="XMLID_8_" d="M64.6,45.7c-0.4,0-0.8-0.1-1.2-0.4L50,35.8l-13.4,9.6c-0.7,0.5-1.8,0.5-2.5,0c-0.7-0.6-1-1.5-0.7-2.4
		l5.7-15.3l-11.4-9.5c-0.7-0.6-0.9-1.5-0.6-2.3c0.3-0.8,1.1-1.4,2-1.4h15.1L48,1.4c0.5-1.8,3.5-1.8,4,0l3.7,13.1h15.1
		c0.9,0,1.7,0.5,2,1.4c0.3,0.8,0,1.7-0.6,2.3l-11.4,9.5l5.7,15.3c0.3,0.9,0,1.8-0.7,2.4C65.5,45.6,65,45.7,64.6,45.7z M50,31.2
		c0.4,0,0.8,0.1,1.2,0.4l9,6.4l-3.8-10.3c-0.3-0.8-0.1-1.8,0.6-2.3l8.1-6.7H54.2c-0.9,0-1.7-0.6-2-1.5L50,9.6l-2.2,7.6
		c-0.3,0.9-1.1,1.5-2,1.5H34.9l8.1,6.7c0.7,0.6,0.9,1.5,0.6,2.3L39.8,38l9-6.4C49.2,31.3,49.6,31.2,50,31.2z"/>
	<path id="XMLID_5_" d="M91.7,99.9c-0.4,0-0.8-0.1-1.2-0.4L77.1,90l-13.4,9.6c-0.8,0.5-1.8,0.5-2.5,0c-0.7-0.6-1-1.5-0.7-2.4
		l5.7-15.3l-11.4-9.5c-0.7-0.6-0.9-1.5-0.6-2.3c0.3-0.8,1.1-1.4,2-1.4h15.1l3.7-13.1c0.5-1.8,3.5-1.8,4,0l3.7,13.1h15.1
		c0.9,0,1.7,0.5,2,1.4c0.3,0.8,0,1.7-0.6,2.3l-11.4,9.5l5.7,15.3c0.3,0.9,0,1.8-0.7,2.4C92.6,99.8,92.1,99.9,91.7,99.9z M77.1,85.3
		c0.4,0,0.9,0.1,1.2,0.4l9,6.4l-3.8-10.3c-0.3-0.8-0.1-1.8,0.6-2.3l8.1-6.7H81.3c-0.9,0-1.7-0.6-2-1.5l-2.2-7.6l-2.2,7.6
		c-0.3,0.9-1.1,1.5-2,1.5H62l8.1,6.7c0.7,0.6,0.9,1.5,0.6,2.3l-3.8,10.3l9-6.4C76.2,85.5,76.7,85.3,77.1,85.3z"/>
	<path id="XMLID_2_" d="M37.5,99.9c-0.4,0-0.8-0.1-1.2-0.4L22.9,90L9.5,99.5c-0.7,0.5-1.8,0.5-2.5,0c-0.7-0.6-1-1.5-0.7-2.4
		l5.7-15.3L0.7,72.3c-0.7-0.6-0.9-1.5-0.6-2.3c0.3-0.8,1.1-1.4,2-1.4h15.1l3.7-13.1c0.5-1.8,3.5-1.8,4,0l3.7,13.1h15.1
		c0.9,0,1.7,0.5,2,1.4c0.3,0.8,0,1.7-0.6,2.3l-11.4,9.5l5.7,15.3c0.3,0.9,0,1.8-0.7,2.4C38.4,99.8,37.9,99.9,37.5,99.9z M22.9,85.3
		c0.4,0,0.8,0.1,1.2,0.4l9,6.4l-3.9-10.3c-0.3-0.8-0.1-1.8,0.6-2.3l8.1-6.7H27.1c-0.9,0-1.7-0.6-2-1.5l-2.2-7.6l-2.2,7.6
		c-0.3,0.9-1.1,1.5-2,1.5H7.8l8.1,6.7c0.7,0.6,0.9,1.5,0.6,2.3l-3.9,10.3l9-6.4C22.1,85.5,22.5,85.3,22.9,85.3z"/>
</g>
</svg>
