<?xml version="1.0" encoding="utf-8"?>
<!-- Generator: Adobe Illustrator 19.0.0, SVG Export Plug-In . SVG Version: 6.00 Build 0)  -->
<svg version="1.1" id="Layer_1" xmlns="http://www.w3.org/2000/svg" xmlns:xlink="http://www.w3.org/1999/xlink" x="0px" y="0px"
	 viewBox="0 0 100 100" style="enable-background:new 0 0 100 100;" xml:space="preserve">
<path id="XMLID_14_" d="M99.3,13.8L86.2,0.7c-0.9-0.9-2.4-0.9-3.3,0l-1.8,1.8C76.6-0.5,70.4,0,66.4,4L40.1,30.3
	c-0.9,0.9-0.9,2.4,0,3.3c0.5,0.5,1,0.7,1.6,0.7c0.6,0,1.2-0.2,1.6-0.7L69.7,7.3c2.1-2.1,5.3-2.5,7.9-1.3l-21,21c0,0,0,0,0,0l-46,46
	c-0.2,0.2-0.3,0.4-0.4,0.7c0,0,0,0-0.1,0.1l-9.9,23c-0.4,0.9-0.2,1.9,0.5,2.6c0.4,0.4,1,0.7,1.6,0.7c0.3,0,0.6-0.1,0.9-0.2l23-9.9
	c0,0,0.1-0.1,0.1-0.1c0.2-0.1,0.4-0.2,0.6-0.4l46-46l26.3-26.3c0.4-0.4,0.7-1,0.7-1.6C100,14.9,99.8,14.3,99.3,13.8z M58.2,31.9
	l9.9,9.9L25.3,84.5l-9.9-9.9L58.2,31.9z M6.8,93.2L13,78.7l8.3,8.3L6.8,93.2z M71.4,38.5l-9.9-9.9l23-23l9.9,9.9L71.4,38.5z"/>
</svg>
