<?xml version="1.0" encoding="utf-8"?>
<!-- Generator: Adobe Illustrator 19.0.0, SVG Export Plug-In . SVG Version: 6.00 Build 0)  -->
<svg version="1.1" id="Layer_1" xmlns="http://www.w3.org/2000/svg" xmlns:xlink="http://www.w3.org/1999/xlink" x="0px" y="0px"
	 viewBox="-247 370.9 100 100" style="enable-background:new -247 370.9 100 100;" xml:space="preserve">
<style type="text/css">
	.st0{fill:#A6A3B8;}
</style>
<g>
	<polygon points="-242.3,438 -230.3,432.4 -227,432.4 -220.1,431.1 -216.9,428.8 -211.2,427.4 -199.3,427.4 -198.8,427.9 
		-198.3,428.5 -197.8,429.2 -197.5,429.9 -197.2,430.6 -197.1,431.4 -197,432.2 -197.1,433 -197.2,433.8 -197.5,434.6 -197.8,435.5 
		-198.2,436.3 -198.8,437.2 -199.4,438 -200.1,438.9 -200.9,439.7 -201.8,440.5 -202.7,441.3 -203.7,442.1 -204.8,442.9 -206,443.6 
		-207.2,444.3 -208.5,445 -209.8,445.6 -211.2,446.2 -212.6,446.8 -214.1,447.3 -215.5,447.8 -217,448.2 -218.5,448.6 -220,448.9 
		-221.5,449.2 -223,449.4 -224.5,449.5 -226,449.6 -227.4,449.7 -228.8,449.7 -230.2,449.7 -231.5,449.5 -232.8,449.4 -234,449.2 
		-235.2,448.9 -236.3,448.6 -237.4,448.2 -238.3,447.8 -239.2,447.3 -240,446.8 -240.7,446.2 -241.3,445.6 -241.9,445 -242.3,444.3 
		-242.6,443.6 -242.9,442.9 -243,442.1 -243.1,441.3 -243.1,440.5 -243,440.3 -242.3,440.6 	"/>
	<polygon points="-151.6,393.9 -152.8,395.8 -152.9,395.5 -152.9,395.2 -153,394.9 -153.2,394.6 -153.3,394.4 -153.5,394.1 
		-153.7,393.9 -153.9,393.7 -154.2,393.6 -154.4,393.4 -154.7,393.3 -155,393.3 -152.1,392.9 	"/>
	<polygon points="-146.8,391 -151.3,393.6 -151.7,392.9 -147.1,390.5 	"/>
	<polygon points="-234,401.2 -223,406.3 -222.7,406.1 -222.4,406 -222.1,405.8 -221.8,405.6 -221.5,405.5 -221.1,405.4 
		-220.8,405.3 -220.4,405.2 -220.1,405.1 -219.7,405.1 -219.6,405 -219.5,405 -219.3,405.1 -219.2,405.1 -219.1,405.1 -219,405.2 
		-218.8,405.2 -218.7,405.3 -218.7,405.3 -218.3,405.7 -218.3,405.8 -218.2,405.9 -218.1,406 -218.1,406.1 -218.1,406.2 
		-218.1,406.3 -218.1,406.5 -218.1,406.6 -218.1,406.7 -218.2,406.8 -218.3,406.9 -218.3,407 -226.6,415.2 -226.7,415.3 
		-226.8,415.3 -226.9,415.3 -227,415.3 -227.1,415.3 -227.2,415.2 -227.3,415.2 -227.4,415.1 -227.4,415 -227.5,414.9 -227.5,414.8 
		-227.5,414.7 -227.5,414.3 -227.4,413.8 -227.3,413.4 -227.2,412.9 -227.1,412.5 -226.9,412.1 -226.8,411.6 -226.6,411.2 
		-226.4,410.8 -238.1,404.9 -238.6,405.5 -239.6,404.8 -239.1,403.8 -238.7,403.2 -238.4,402.7 -238,402.2 -237.6,401.8 
		-237.2,401.3 -236.7,400.9 -236.2,400.6 -235.7,400.2 -235.1,399.9 -234.6,399.6 -234,399.4 -233.1,400.4 	"/>
	<polygon class="st0" points="-218.7,405.3 -218.6,405.4 -218.5,405.5 -218.4,405.6 -218.3,405.7 	"/>
	<polygon points="-215.4,424.4 -211.3,421.4 -210.9,421.2 -210.4,420.9 -210,420.7 -209.5,420.5 -209,420.4 -208.5,420.3 
		-208,420.2 -207.5,420.1 -207,420.1 -206.5,420.1 -206,420.2 -205.5,420.2 -204.8,420.4 -203.5,420.7 -202.2,421.1 -201,421.5 
		-199.9,422 -198.9,422.5 -198,423.1 -197.1,423.7 -196.4,424.4 -196.4,424.7 -196.5,424.9 -196.6,425.1 -196.7,425.3 -196.8,425.5 
		-197,425.7 -197.2,425.9 -197.4,426 -197.6,426.1 -197.8,426.2 -198,426.2 -198.3,426.2 -211.9,426.2 -217.8,427.7 -220.9,430 
		-227.6,431.2 -231,431.2 -243.5,437 -243.5,438.1 -243.5,438.2 -243.5,438.3 -243.6,438.4 -243.6,438.5 -243.7,438.6 -243.8,438.7 
		-243.9,438.8 -244,438.8 -244.1,438.9 -244.3,438.9 -244.4,438.9 -244.5,438.8 -246.7,438.2 -246.8,438.1 -246.8,438.1 -246.9,438 
		-246.9,438 -246.9,437.9 -247,437.8 -247,437.8 -247,437.7 -247,437.6 -247,437.5 -247,437.5 -247,437.4 -246.9,437.1 
		-246.5,436.1 -246,435.1 -245.4,434.2 -244.7,433.2 -243.9,432.2 -242.9,431.3 -241.9,430.3 -240.8,429.4 -239.7,428.5 
		-238.4,427.6 -237.1,426.8 -235.6,426 -234.2,425.2 -232.7,424.5 -231.1,423.8 -229.5,423.1 -228.7,422.9 -228.4,423.2 
		-228.3,423.2 -228.1,423.3 -228,423.4 -227.9,423.5 -227.7,423.5 -227.6,423.6 -227.4,423.6 -227.3,423.6 -227.1,423.7 
		-218.1,424.9 -217.9,424.9 -217.7,424.9 -217.4,425 -217.2,424.9 -217,424.9 -216.7,424.9 -216.5,424.8 -216.3,424.8 -216.1,424.7 
		-215.9,424.6 -215.6,424.5 	"/>
	<polygon points="-169.4,398.9 -169.3,399 -169.3,399.1 -169.2,399.2 -169.1,399.3 -169.1,399.4 -169,399.5 -169,399.7 -169,399.8 
		-169,399.9 -169,406.2 -169,406.4 -169,406.6 -169,406.7 -169.1,406.9 -169.2,407 -169.3,407.2 -169.4,407.3 -169.5,407.4 
		-169.6,407.5 -169.8,407.6 -169.9,407.7 -170.1,407.8 -196.5,416.8 -197,417 -197.5,417.1 -198.1,417.3 -198.6,417.4 -199.2,417.5 
		-199.7,417.6 -200.3,417.7 -200.8,417.8 -201.4,417.8 -201.9,417.8 -202.5,417.9 -203.1,417.9 -206.5,417.9 -211,420.4 
		-213.8,422.4 -214.3,422.7 -214.8,423 -215.3,423.2 -215.9,423.5 -216.4,423.6 -217,423.8 -217.6,423.9 -218.1,424 -218.7,424 
		-219.3,424 -219.9,424 -220.5,423.9 -226.4,423.1 -226.6,423.1 -226.9,423 -227.1,422.9 -227.2,422.8 -227.4,422.6 -227.6,422.5 
		-227.7,422.3 -227.8,422.1 -227.9,421.9 -228,421.7 -228.1,421.5 -228.1,421.3 -228.2,420 -228.2,419.7 -228.2,419.3 -228.1,419 
		-228.1,418.7 -228,418.4 -227.9,418 -227.8,417.7 -227.6,417.4 -227.4,417.2 -227.3,416.9 -227,416.6 -226.8,416.4 -215.5,405.2 
		-215.1,404.8 -214.7,404.5 -214.3,404.2 -213.9,403.9 -213.5,403.6 -213,403.3 -212.6,403.1 -212.1,402.9 -211.6,402.7 
		-211.1,402.5 -210.7,402.4 -210.2,402.2 -178.8,395.2 -178.6,395.1 -178.4,395.1 -178.2,395.1 -178,395.1 -177.8,395.1 
		-177.6,395.1 -177.4,395.1 -177.1,395.2 -176.9,395.2 -176.7,395.3 -176.6,395.4 -176.4,395.5 -169.8,398.6 -169.6,398.7 
		-169.5,398.8 	"/>
	<polygon points="-154.9,400.7 -154.9,400.7 -155,400.6 -155,400.5 -155,400.5 -155,400.4 -155.1,400.3 -155.2,399.3 -155.2,399.3 
		-155.3,399.2 -155.3,399.2 -155.3,399.1 -155.4,399.1 -155.4,399 -155.5,399 -155.5,399 -155.6,399 -155.7,399 -155.7,399 
		-155.8,399 -162.1,401.4 -162.2,401.5 -162.3,401.5 -162.4,401.6 -162.5,401.7 -162.6,401.8 -162.7,401.9 -162.8,402 -162.9,402.1 
		-162.9,402.2 -163,402.3 -163,402.4 -163.1,402.5 -163.3,403.4 -163.3,403.6 -163.4,403.8 -163.5,404 -163.6,404.2 -163.7,404.3 
		-163.8,404.5 -164,404.7 -164.1,404.8 -164.3,405 -164.4,405.1 -164.6,405.2 -164.8,405.3 -166.7,405.9 -166.8,405.9 -167,405.9 
		-167.1,405.9 -167.2,405.9 -167.4,405.8 -167.5,405.7 -167.6,405.6 -167.7,405.5 -167.8,405.4 -167.8,405.3 -167.8,405.2 
		-167.9,405 -167.9,399.2 -167.9,399.1 -167.9,399 -168,398.9 -168,398.7 -168.1,398.6 -168.1,398.5 -168.2,398.4 -168.3,398.3 
		-168.4,398.2 -168.5,398.1 -168.6,398.1 -168.8,398 -174.5,395.2 -174.5,395.2 -174.6,395.1 -174.6,395 -174.6,395 -174.6,394.9 
		-174.6,394.8 -174.6,394.7 -174.6,394.7 -174.6,394.6 -174.6,394.5 -174.5,394.5 -174.5,394.4 -159.7,392.5 -159.4,392.4 
		-159.1,392.4 -158.8,392.4 -158.5,392.4 -158.2,392.5 -157.9,392.5 -157.6,392.6 -157.3,392.7 -157,392.8 -156.7,392.9 -156.4,393 
		-156.2,393.1 -154.8,393.9 -154.6,394 -154.4,394.1 -154.2,394.3 -154.1,394.4 -153.9,394.6 -153.8,394.8 -153.7,395 -153.6,395.2 
		-153.5,395.4 -153.5,395.7 -153.5,395.9 -153.4,396.1 -153.4,400.2 -153.5,400.3 -153.5,400.4 -153.5,400.4 -153.5,400.5 
		-153.6,400.6 -153.6,400.6 -153.6,400.7 -153.7,400.7 -153.8,400.8 -153.8,400.8 -153.9,400.8 -154,400.8 -154.5,400.8 
		-154.5,400.8 -154.6,400.8 -154.7,400.8 -154.7,400.8 -154.8,400.7 	"/>
</g>
</svg>
