<?xml version="1.0" encoding="utf-8"?>
<!-- Generator: Adobe Illustrator 16.0.0, SVG Export Plug-In . SVG Version: 6.00 Build 0)  -->
<svg version="1.2" baseProfile="tiny" id="Layer_1" xmlns="http://www.w3.org/2000/svg" xmlns:xlink="http://www.w3.org/1999/xlink"
	 x="0px" y="0px" width="12.875px" height="12.45px" viewBox="0 0 12.875 12.45" xml:space="preserve">
<g>
	<path fill="#CC6699" d="M6.225,0c3.439,0,6.226,2.787,6.226,6.225S9.664,12.45,6.225,12.45C2.787,12.45,0,9.663,0,6.225
		S2.787,0,6.225,0L6.225,0z"/>
	<g>
		<path fill="#FFFFFF" d="M10.13,2.665C9.848,1.559,8.015,1.195,6.28,1.812c-1.033,0.367-2.15,0.943-2.954,1.695
			C2.37,4.4,2.217,5.178,2.28,5.503C2.502,6.65,4.074,7.399,4.72,7.956V7.96C4.529,8.054,3.135,8.759,2.809,9.48
			c-0.344,0.761,0.055,1.308,0.319,1.381c0.819,0.228,1.659-0.182,2.111-0.855c0.436-0.649,0.399-1.489,0.21-1.907
			c0.261-0.068,0.566-0.1,0.953-0.055C7.493,8.173,7.707,8.854,7.666,9.14S7.396,9.582,7.32,9.63
			C7.243,9.677,7.22,9.693,7.227,9.729c0.009,0.051,0.045,0.05,0.109,0.038C7.426,9.751,7.91,9.534,7.93,9.008
			C7.957,8.339,7.316,7.591,6.181,7.61C5.714,7.618,5.42,7.663,5.208,7.741C5.191,7.724,5.176,7.706,5.159,7.688
			C4.458,6.94,3.161,6.411,3.215,5.404c0.02-0.366,0.147-1.329,2.492-2.498c1.921-0.957,3.458-0.694,3.724-0.11
			C9.813,3.631,8.61,5.181,6.616,5.404c-0.76,0.085-1.161-0.209-1.26-0.319C5.251,4.97,5.235,4.965,5.196,4.986
			c-0.064,0.035-0.023,0.137,0,0.198c0.06,0.155,0.304,0.43,0.72,0.566c0.367,0.12,1.259,0.187,2.338-0.231
			C9.463,5.052,10.407,3.751,10.13,2.665z M4.988,8.299c0.091,0.335,0.081,0.647-0.013,0.931C4.965,9.261,4.953,9.292,4.94,9.322
			C4.928,9.353,4.915,9.384,4.9,9.413c-0.072,0.15-0.169,0.29-0.288,0.42c-0.362,0.395-0.867,0.543-1.083,0.418
			c-0.234-0.137-0.117-0.692,0.302-1.135c0.451-0.478,1.1-0.784,1.1-0.784l0-0.002C4.95,8.319,4.969,8.31,4.988,8.299z"/>
	</g>
</g>
</svg>
