<?xml version="1.0" encoding="utf-8"?>
<!-- Generator: Adobe Illustrator 16.0.0, SVG Export Plug-In . SVG Version: 6.00 Build 0)  -->
<svg version="1.2" baseProfile="tiny" id="Layer_1" xmlns="http://www.w3.org/2000/svg" xmlns:xlink="http://www.w3.org/1999/xlink"
	 x="0px" y="0px" width="32.001px" height="24px" viewBox="0 0 32.001 24" xml:space="preserve">
<path d="M27.555,13.797c-1.116,0.006-2.087,0.274-2.899,0.672c-0.298-0.59-0.596-1.117-0.648-1.502
	c-0.059-0.451-0.129-0.726-0.059-1.263c0.07-0.538,0.386-1.304,0.38-1.362c-0.006-0.058-0.069-0.333-0.713-0.339
	s-1.198,0.123-1.263,0.292c-0.064,0.17-0.188,0.556-0.269,0.953c-0.111,0.584-1.286,2.671-1.958,3.764
	c-0.217-0.426-0.404-0.801-0.444-1.099c-0.059-0.45-0.129-0.725-0.059-1.263s0.386-1.304,0.38-1.362
	c-0.006-0.059-0.07-0.333-0.713-0.339s-1.198,0.123-1.263,0.292s-0.134,0.567-0.269,0.953s-1.695,3.87-2.104,4.771
	c-0.21,0.461-0.392,0.83-0.521,1.081l0,0c0,0-0.006,0.018-0.023,0.047c-0.111,0.216-0.175,0.333-0.175,0.333s0,0,0,0.006
	c-0.087,0.158-0.181,0.304-0.228,0.304c-0.035,0-0.099-0.421,0.012-0.993c0.234-1.211,0.789-3.092,0.784-3.156
	c0-0.035,0.105-0.363-0.363-0.532c-0.456-0.169-0.62,0.11-0.66,0.11c-0.041,0-0.07,0.1-0.07,0.1s0.509-2.116-0.97-2.116
	c-0.923,0-2.198,1.012-2.829,1.924c-0.397,0.216-1.245,0.678-2.151,1.175c-0.345,0.193-0.702,0.386-1.035,0.566
	c-0.023-0.023-0.047-0.053-0.07-0.076c-1.789-1.91-5.097-3.261-4.957-5.828c0.053-0.935,0.374-3.39,6.354-6.371
	c4.922-2.426,8.838-1.753,9.516-0.263c0.971,2.127-2.098,6.079-7.183,6.651c-1.941,0.216-2.958-0.532-3.215-0.813
	C7.6,8.822,7.559,8.804,7.46,8.863c-0.164,0.087-0.059,0.351,0,0.502c0.152,0.397,0.777,1.099,1.835,1.444
	c0.935,0.304,3.209,0.474,5.962-0.59c3.08-1.192,5.488-4.507,4.781-7.283c-0.707-2.817-5.383-3.747-9.808-2.174
	C7.6,1.697,4.748,3.169,2.696,5.087c-2.438,2.279-2.823,4.261-2.666,5.091c0.567,2.946,4.629,4.863,6.254,6.284
	c-0.082,0.046-0.158,0.087-0.222,0.122c-0.813,0.404-3.911,2.023-4.682,3.735c-0.876,1.94,0.14,3.332,0.813,3.519
	c2.087,0.579,4.232-0.461,5.383-2.18s1.011-3.951,0.479-4.975c-0.006-0.012-0.012-0.023-0.023-0.035
	c0.21-0.123,0.427-0.251,0.637-0.373c0.415-0.246,0.824-0.475,1.175-0.661C9.646,16.158,9.5,16.807,9.43,17.742
	c-0.088,1.099,0.362,2.525,0.953,3.086c0.263,0.246,0.573,0.252,0.771,0.252c0.69,0,1-0.573,1.345-1.252
	c0.421-0.83,0.801-1.794,0.801-1.794s-0.474,2.606,0.813,2.606c0.467,0,0.941-0.607,1.151-0.918c0,0.006,0,0.006,0,0.006
	s0.012-0.018,0.035-0.058c0.046-0.076,0.076-0.123,0.076-0.123s0-0.006,0-0.012c0.187-0.327,0.608-1.069,1.233-2.303
	c0.807-1.59,1.584-3.577,1.584-3.577s0.07,0.484,0.311,1.291c0.141,0.475,0.432,0.994,0.666,1.497
	c-0.188,0.263-0.304,0.409-0.304,0.409s0,0,0.006,0.006c-0.152,0.199-0.315,0.415-0.497,0.625c-0.637,0.76-1.396,1.631-1.502,1.883
	c-0.123,0.298-0.094,0.514,0.141,0.689c0.169,0.129,0.473,0.146,0.783,0.129c0.572-0.041,0.976-0.182,1.174-0.27
	c0.311-0.111,0.673-0.28,1.012-0.531c0.625-0.463,1.006-1.123,0.971-1.994c-0.018-0.479-0.176-0.958-0.369-1.408
	c0.059-0.082,0.111-0.164,0.17-0.246c0.988-1.443,1.754-3.027,1.754-3.027s0.07,0.485,0.31,1.292
	c0.116,0.409,0.356,0.854,0.567,1.286c-0.93,0.754-1.502,1.631-1.707,2.203c-0.368,1.064-0.082,1.543,0.461,1.654
	c0.246,0.053,0.597-0.064,0.854-0.176c0.328-0.104,0.714-0.285,1.082-0.555c0.625-0.462,1.228-1.105,1.192-1.976
	c-0.018-0.397-0.123-0.789-0.269-1.169c0.789-0.328,1.806-0.509,3.104-0.357c2.782,0.328,3.332,2.064,3.227,2.795
	s-0.689,1.128-0.883,1.25c-0.193,0.123-0.258,0.164-0.24,0.252c0.023,0.129,0.117,0.123,0.281,0.1
	c0.228-0.041,1.461-0.591,1.514-1.936C32.085,15.655,30.449,13.779,27.555,13.797z M6.092,21.033
	c-0.924,1.005-2.209,1.385-2.765,1.063c-0.596-0.345-0.362-1.829,0.772-2.894c0.689-0.648,1.578-1.251,2.168-1.619
	c0.134-0.082,0.333-0.199,0.573-0.345c0.041-0.023,0.064-0.035,0.064-0.035l0,0c0.046-0.029,0.093-0.059,0.14-0.088
	C7.46,18.637,7.063,19.975,6.092,21.033z M12.814,16.462c-0.321,0.783-0.994,2.788-1.403,2.677c-0.351-0.094-0.567-1.613-0.07-3.115
	c0.251-0.754,0.783-1.654,1.093-2.005c0.502-0.562,1.058-0.748,1.192-0.521C13.796,13.797,13.013,15.971,12.814,16.462z
	 M18.361,19.115c-0.135,0.07-0.263,0.117-0.321,0.082c-0.041-0.023,0.059-0.117,0.059-0.117s0.695-0.748,0.97-1.087
	c0.158-0.198,0.346-0.433,0.544-0.695c0,0.022,0,0.052,0,0.075C19.612,18.268,18.747,18.87,18.361,19.115z M22.64,18.139
	c-0.1-0.069-0.082-0.303,0.251-1.034c0.128-0.286,0.433-0.766,0.952-1.228c0.059,0.188,0.1,0.369,0.094,0.538
	C23.931,17.543,23.125,17.964,22.64,18.139z"/>
</svg>
