<?xml version="1.0" encoding="utf-8"?>
<!-- Generator: Adobe Illustrator 19.0.0, SVG Export Plug-In . SVG Version: 6.00 Build 0)  -->
<svg version="1.1" id="Layer_1" xmlns="http://www.w3.org/2000/svg" xmlns:xlink="http://www.w3.org/1999/xlink" x="0px" y="0px"
	 viewBox="0 0 100 100" style="enable-background:new 0 0 100 100;" xml:space="preserve">
<path id="XMLID_8_" d="M99.2,95.3L62.7,58.8c5.3-6.2,8.6-14.3,8.6-23.1C71.3,16,55.3,0,35.6,0S0,16,0,35.6s16,35.6,35.6,35.6
	c8.8,0,16.9-3.2,23.1-8.6l36.5,36.5c0.5,0.5,1.3,0.8,2,0.8c0.7,0,1.4-0.3,2-0.8C100.3,98.1,100.3,96.3,99.2,95.3z M5.6,35.6
	C5.6,19,19,5.6,35.6,5.6S65.7,19,65.7,35.6S52.2,65.7,35.6,65.7S5.6,52.2,5.6,35.6z"/>
</svg>
