<?xml version="1.0" encoding="utf-8"?>
<!-- Generator: Adobe Illustrator 19.0.0, SVG Export Plug-In . SVG Version: 6.00 Build 0)  -->
<svg version="1.1" id="Layer_1" xmlns="http://www.w3.org/2000/svg" xmlns:xlink="http://www.w3.org/1999/xlink" x="0px" y="0px"
	 viewBox="-247 370.9 100 100" style="enable-background:new -247 370.9 100 100;" xml:space="preserve">
<g>
	<polygon points="-192,401.6 -192,401.8 -192.1,402 -192.2,402.2 -192.3,402.4 -192.4,402.6 -192.5,402.8 -192.6,403 -192.7,403.2 
		-192.9,403.4 -193.1,403.5 -194.8,405 -223.2,423.8 -223.4,423.9 -223.7,424 -224,424.1 -224.2,424.1 -224.5,424.1 -224.8,424.1 
		-225.1,424 -225.3,423.9 -225.6,423.7 -225.8,423.6 -226,423.4 -226.2,423.1 -227.1,421.7 -232.7,425.4 -234.7,428.5 -236,431.9 
		-236.6,435.5 -236.4,439.1 -235.4,442.6 -233.7,445.9 -231.4,448.7 -228.5,451 -225.3,452.6 -221.7,453.4 -218.1,453.6 
		-186.6,453.3 -184.5,453.3 -182.3,453.7 -180.2,454.4 -178.3,455.5 -176.7,456.9 -175.3,458.7 -174.3,460.6 -173.6,462.7 
		-173.3,464.8 -173.4,467 -174,469.2 -174.8,471.2 -177.7,469.9 -177,468.1 -176.6,466.6 -176.5,465 -176.7,463.4 -177.2,461.8 
		-178,460.4 -179,459.1 -180.2,458.1 -181.6,457.3 -183.1,456.7 -184.7,456.5 -186.6,456.5 -218.1,456.7 -222.1,456.6 -226.3,455.5 
		-230.2,453.6 -233.6,451 -236.4,447.6 -238.4,443.8 -239.5,439.6 -239.7,435.3 -239.1,431 -237.5,427 -235,423.1 -228.9,419.1 
		-229.8,417.7 -229.8,417.5 -229.9,417.2 -229.9,417 -229.9,416.7 -229.8,416.5 -229.8,416.2 -229.7,416 -229.7,415.7 -229.6,415.5 
		-229.5,415.3 -229.4,415.1 -229.2,414.9 -200.7,396 -198.7,395.1 -198.4,395 -198.2,394.9 -198,394.9 -197.8,394.8 -197.5,394.8 
		-197.3,394.8 -197,394.8 -196.8,394.9 -196.6,394.9 -196.4,395 -196.1,395.1 -195.9,395.2 -192,401.1 -192,401.4 	"/>
	<polygon points="-189.5,392.3 -170.9,380.1 -170.1,381.3 -156,372 -154.6,372.2 -155,373.4 -169.1,382.8 -168.3,384.1 -187,396.4 
		-184.2,400.7 -189.4,398.1 -191.7,399.6 -194.4,395.6 -191.9,394 -192.3,388.2 	"/>
</g>
</svg>
