<?xml version="1.0" encoding="utf-8"?>
<!-- Generator: Adobe Illustrator 19.0.0, SVG Export Plug-In . SVG Version: 6.00 Build 0)  -->
<svg version="1.1" id="Layer_1" xmlns="http://www.w3.org/2000/svg" xmlns:xlink="http://www.w3.org/1999/xlink" x="0px" y="0px"
	 viewBox="0 0 100 100" style="enable-background:new 0 0 100 100;" xml:space="preserve">
<g id="XMLID_1_">
	<path id="XMLID_10_" d="M63.1,93.4c-2.8,1-5.6,1.6-8.6,1.9c-1.3,0.1-2.2,1.3-2.1,2.6c0.1,1.2,1.1,2.1,2.3,2.1c0.1,0,0.2,0,0.3,0
		c3.3-0.4,6.5-1.1,9.6-2.2c1.2-0.4,1.9-1.8,1.4-3C65.6,93.6,64.3,93,63.1,93.4z"/>
	<path id="XMLID_11_" d="M87.6,43.5c0.3,1,1.2,1.6,2.2,1.6c0.2,0,0.5,0,0.7-0.1c1.2-0.4,1.9-1.7,1.5-2.9c-0.7-2-1.5-4.1-2.5-6
		c-0.6-1.1-2-1.6-3.1-1c-1.1,0.6-1.6,2-1,3.1C86.3,39.9,87,41.7,87.6,43.5z"/>
	<path id="XMLID_12_" d="M77.9,84.1c-2.1,2.1-4.4,3.9-6.9,5.5c-1.1,0.7-1.4,2.1-0.7,3.2c0.4,0.7,1.2,1.1,2,1.1
		c0.4,0,0.9-0.1,1.2-0.4c2.8-1.7,5.4-3.8,7.7-6.1c0.9-0.9,0.9-2.4,0-3.3C80.3,83.2,78.8,83.2,77.9,84.1z"/>
	<path id="XMLID_13_" d="M94.1,51.6c-0.1-1.3-1.3-2.2-2.5-2.1c-1.3,0.1-2.2,1.3-2.1,2.5c0.1,1.3,0.2,2.6,0.2,3.9
		c0,1.6-0.1,3.3-0.3,4.9c-0.2,1.3,0.8,2.4,2,2.6c0.1,0,0.2,0,0.3,0c1.2,0,2.2-0.9,2.3-2c0.2-1.8,0.3-3.7,0.3-5.5
		C94.3,54.5,94.2,53.1,94.1,51.6z"/>
	<path id="XMLID_14_" d="M90.3,68c-1.2-0.4-2.5,0.2-3,1.4c-1,2.8-2.3,5.4-3.9,7.9c-0.7,1.1-0.4,2.5,0.7,3.2c0.4,0.3,0.8,0.4,1.3,0.4
		c0.8,0,1.5-0.4,2-1.1c1.8-2.8,3.2-5.7,4.3-8.8C92.1,69.8,91.5,68.5,90.3,68z"/>
	<path id="XMLID_15_" d="M45.6,95.4C25.5,93.1,10.4,76.2,10.4,56c0-21.9,17.8-39.6,39.6-39.6c0.7,0,1.3,0,1.9,0.1l-10.4,7.4
		c-1,0.7-1.3,2.2-0.6,3.3c0.5,0.6,1.2,1,1.9,1c0.5,0,0.9-0.1,1.3-0.4l16.5-11.7c0.6-0.4,1-1.1,1-1.9s-0.4-1.5-1-1.9L44.2,0.4
		C43.2-0.3,41.7-0.1,41,1c-0.7,1.1-0.5,2.5,0.6,3.3l10.6,7.5c-0.7,0-1.4-0.1-2.1-0.1C25.6,11.7,5.7,31.5,5.7,56
		c0,22.6,16.9,41.6,39.4,44c0.1,0,0.2,0,0.3,0c1.2,0,2.2-0.9,2.3-2.1C47.8,96.6,46.9,95.5,45.6,95.4z"/>
</g>
</svg>
