<?xml version="1.0" encoding="utf-8"?>
<!-- Generator: Adobe Illustrator 19.0.0, SVG Export Plug-In . SVG Version: 6.00 Build 0)  -->
<svg version="1.1" id="Layer_1" xmlns="http://www.w3.org/2000/svg" xmlns:xlink="http://www.w3.org/1999/xlink" x="0px" y="0px"
	 viewBox="-247 370.9 100 100" style="enable-background:new -247 370.9 100 100;" xml:space="preserve">
<path d="M-200.2,441l12.6,4.4h0.1l-10.4-9.1l7.7-12.1l-11.1,8.3l-8-11.9l3.6,14.3l-12.6,4.7l13.3,0.6l0.1,14.9L-200.2,441z
	 M-159.8,456.5v-9.7h-12.4v9.7H-159.8z M-234.2,434.1h-11.6v9.8h11.6V434.1z M-183.3,445.4h25.2v12.7h-45l-4.3,12.8l-0.1-12.8h-30.1
	v-12.7h-9.5v-12.9h38l-6.7-26.6l15,22.5l12.6-40.1l-8.1-3.6l-0.2-0.1l-0.2-0.2l-0.2-0.2l-0.2-0.2l-0.2-0.2l-0.1-0.3l-0.1-0.3
	l-0.1-0.3l0-0.3l0-0.3l0-0.3l0.1-0.3l2.9-8.1l0.1-0.3l0.2-0.3l0.2-0.3l0.2-0.2l0.2-0.2l0.3-0.2l0.3-0.1l0.3-0.1l0.3,0l0.3,0l0.3,0.1
	l0.3,0.1l7.4,3.3l1.4-4.5l1.5,0.6l-1.5,4.6l34.2,15l0.2,0.1l0.2,0.2l0.2,0.2l0.2,0.2l0.2,0.2l0.1,0.3l0.1,0.3l0.1,0.3l0,0.3l0,0.3
	l0,0.3l-0.1,0.3l-2.9,8.3l-0.1,0.3l-0.2,0.3l-0.2,0.2l-0.2,0.2l-0.2,0.2l-0.2,0.1l-0.3,0.1l-0.3,0.1l-0.3,0l-0.3,0l-0.3-0.1
	l-0.3-0.1l-33.7-14.8l-12.1,37.9l18.9-14l-14.6,22.8L-183.3,445.4z"/>
</svg>
