<?xml version="1.0" standalone="no"?>
<!DOCTYPE svg PUBLIC "-//W3C//DTD SVG 20010904//EN"
 "http://www.w3.org/TR/2001/REC-SVG-20010904/DTD/svg10.dtd">
<svg version="1.0" xmlns="http://www.w3.org/2000/svg"
 width="260.000000pt" height="260.000000pt" viewBox="0 0 260.000000 260.000000"
 preserveAspectRatio="xMidYMid meet">
<metadata>
Created by potrace 1.11, written by Peter Selinger 2001-2013
</metadata>
<g transform="translate(0.000000,260.000000) scale(0.100000,-0.100000)"
fill="#000000" stroke="none">
<path d="M385 1743 c-88 -20 -100 -25 -80 -34 18 -8 17 -9 -4 -5 -29 6 -75
-13 -116 -48 l-30 -25 27 -1 c17 0 28 6 31 18 4 13 5 12 6 -5 1 -22 -7 -27
-64 -35 -14 -2 -20 -12 -21 -34 -1 -27 2 -32 21 -30 24 1 28 15 10 28 -12 9
17 11 94 9 30 -1 61 -7 68 -13 10 -8 13 -6 13 11 0 11 4 21 10 21 10 0 6 -19
-13 -58 -11 -22 -14 -23 -128 -20 -104 3 -119 1 -122 -14 -4 -15 5 -18 62 -20
63 -3 66 -4 66 -28 0 -24 -3 -25 -75 -31 -41 -3 -70 -6 -65 -7 6 -1 10 -22 10
-46 0 -33 -3 -42 -14 -38 -12 4 -13 -4 -8 -43 4 -27 12 -52 18 -56 6 -3 10 -9
10 -13 -1 -3 -1 -20 -1 -38 0 -30 1 -31 14 -12 9 11 10 21 5 25 -25 15 -2 34
46 39 30 3 51 10 51 18 1 6 2 26 3 42 2 46 16 35 16 -12 0 -42 1 -43 36 -46
30 -3 39 -9 52 -38 l17 -34 -111 0 c-100 0 -110 -2 -107 -17 2 -14 15 -19 51
-21 28 -2 47 1 47 7 0 6 4 11 9 11 4 0 8 -17 8 -37 l-1 -38 129 0 130 -1 -122
3 -123 4 0 34 0 34 53 3 c33 2 61 -2 76 -11 l24 -15 -19 35 c-15 27 -19 55
-19 140 0 100 2 108 30 154 40 64 83 89 156 90 55 0 57 1 41 18 -14 16 -14 19
-2 27 8 6 22 10 31 10 13 0 15 -8 9 -45 l-7 -45 76 -2 c64 -1 67 -2 23 -5 -43
-3 -53 -7 -48 -19 3 -9 6 -20 6 -25 0 -5 50 -9 110 -9 l110 0 0 32 c0 44 -35
112 -73 143 -18 14 -37 30 -44 35 -8 7 -13 2 -15 -18 -2 -15 -9 -27 -15 -26
-7 1 -42 2 -77 3 -62 1 -63 2 -58 26 2 14 12 26 21 27 9 0 21 2 26 3 6 2 25 3
43 4 17 0 32 4 32 9 0 8 -78 42 -97 42 -6 0 -14 -8 -16 -17 -4 -14 -5 -14 -6
3 -1 16 -10 23 -32 28 -35 7 -163 6 -194 -1z m105 -88 c0 -19 -3 -35 -7 -35
-5 0 -8 16 -8 35 0 19 3 35 8 35 4 0 7 -16 7 -35z m-141 6 c11 -7 10 -11 -5
-20 -17 -10 -16 -10 7 -5 15 3 30 1 33 -5 4 -6 -7 -9 -31 -8 -26 2 -37 7 -35
16 2 8 -3 18 -10 22 -9 6 -7 9 7 9 11 0 26 -4 34 -9z m446 -31 c3 -5 1 -10 -4
-10 -6 0 -11 5 -11 10 0 6 2 10 4 10 3 0 8 -4 11 -10z m-535 -4 c0 -3 -4 -8
-10 -11 -5 -3 -10 -1 -10 4 0 6 5 11 10 11 6 0 10 -2 10 -4z m40 0 c0 -3 -4
-8 -10 -11 -5 -3 -10 -1 -10 4 0 6 5 11 10 11 6 0 10 -2 10 -4z m521 -60 c5
-17 7 -31 5 -33 -7 -7 -140 -12 -163 -7 -19 5 -23 11 -19 33 2 14 5 30 5 34 1
4 38 7 83 5 81 -3 82 -3 89 -32z m2 -63 c-7 -2 -21 -2 -30 0 -10 3 -4 5 12 5
17 0 24 -2 18 -5z m-528 -23 c12 -20 -6 -50 -30 -50 -22 0 -36 22 -28 45 4 14
50 17 58 5z m-69 -65 c-3 -8 -1 -15 4 -15 6 0 10 5 10 10 0 6 10 10 23 10 20
0 22 -4 19 -39 l-4 -38 -83 -2 c-46 0 -86 3 -89 8 -11 17 6 71 21 71 13 0 13
-3 3 -15 -11 -13 -10 -14 4 -9 9 3 16 10 16 16 0 5 6 6 13 1 23 -14 47 -13 47
2 0 8 5 15 11 15 6 0 9 -7 5 -15z m54 -97 c0 -7 3 -23 6 -35 6 -20 3 -23 -26
-23 -25 0 -31 3 -26 16 3 9 6 24 6 35 0 12 7 19 20 19 11 0 20 -6 20 -12z
m-93 -174 c-3 -3 -12 -4 -19 -1 -8 3 -5 6 6 6 11 1 17 -2 13 -5z"/>
<path d="M1231 1735 c-29 -7 -58 -18 -64 -24 -6 -6 -17 -11 -25 -11 -7 0 -34
-14 -60 -32 -45 -31 -46 -32 -22 -38 17 -4 27 -2 31 9 5 12 6 12 12 -2 6 -17
-6 -23 -63 -29 -21 -3 -25 -8 -25 -35 0 -27 3 -32 23 -30 24 1 30 22 10 30
-16 7 30 10 101 9 32 -1 58 -7 63 -14 6 -9 10 -7 14 10 4 12 10 22 15 22 10 0
1 -25 -21 -57 -14 -22 -22 -23 -122 -23 -96 0 -108 2 -108 18 0 14 -2 15 -10
2 -21 -33 -12 -50 28 -50 24 0 32 -3 23 -9 -9 -6 -10 -11 -2 -15 6 -4 11 -4
11 1 0 4 5 1 11 -7 9 -12 10 -11 6 8 -4 18 -1 22 18 22 16 0 24 -7 27 -25 3
-13 3 -27 0 -30 -3 -3 -38 -5 -79 -5 -63 0 -73 -2 -72 -17 0 -11 3 -13 6 -5
10 25 18 11 18 -31 0 -37 -3 -43 -17 -39 -13 3 -18 -2 -18 -16 0 -38 13 -82
24 -82 6 0 12 -16 14 -36 4 -61 16 -74 73 -74 31 0 48 4 44 10 -3 6 -1 10 4
10 6 0 11 -18 11 -40 l0 -40 128 2 127 2 -121 3 -120 4 0 33 c1 34 1 34 54 38
35 2 57 -1 64 -9 23 -28 26 -11 6 33 -17 39 -20 62 -16 138 5 100 26 158 74
195 35 27 100 44 142 37 33 -5 34 -5 18 19 -14 21 -14 24 0 29 39 15 50 7 46
-31 -3 -21 -10 -41 -16 -45 -6 -4 27 -9 74 -10 71 -1 75 -2 27 -5 -48 -3 -58
-7 -53 -19 3 -9 6 -20 6 -25 0 -5 50 -9 111 -9 l112 0 -7 46 c-8 62 -54 130
-87 127 -13 -1 -18 1 -11 4 10 4 10 8 1 19 -15 18 -33 18 -26 1 11 -28 -8 -34
-88 -28 -47 4 -75 9 -67 14 7 5 10 12 7 17 -6 10 24 29 45 28 37 -2 70 3 70
11 0 7 -75 41 -93 41 -4 0 -7 -7 -7 -16 0 -8 -4 -13 -10 -9 -5 3 -7 12 -4 19
11 27 -167 35 -265 11z m-24 -31 c-3 -3 -12 -4 -19 -1 -8 3 -5 6 6 6 11 1 17
-2 13 -5z m168 -54 c1 -17 -2 -30 -7 -30 -4 0 -8 17 -8 37 0 43 13 37 15 -7z
m-138 -1 c3 -11 11 -18 19 -15 7 3 16 1 19 -4 3 -5 -13 -8 -35 -8 -33 0 -40 3
-35 16 3 8 0 19 -7 24 -9 5 -6 8 10 8 16 0 26 -7 29 -21z m-87 -23 c0 -3 -4
-8 -10 -11 -5 -3 -10 -1 -10 4 0 6 5 11 10 11 6 0 10 -2 10 -4z m40 -6 c0 -5
-7 -7 -15 -4 -8 4 -15 8 -15 10 0 2 7 4 15 4 8 0 15 -4 15 -10z m503 -27 c2
-5 7 -20 10 -34 7 -26 6 -27 -63 -33 -81 -8 -110 -2 -110 24 0 45 9 50 85 50
41 0 76 -3 78 -7z m10 -90 c-7 -2 -19 -2 -25 0 -7 3 -2 5 12 5 14 0 19 -2 13
-5z m-523 -30 c0 -28 -16 -45 -36 -41 -23 4 -31 37 -12 49 22 15 48 10 48 -8z
m-59 -73 c6 0 7 5 4 10 -3 6 5 10 19 10 18 0 23 -5 21 -17 -2 -10 -4 -27 -4
-39 -1 -19 -8 -20 -86 -22 l-85 -2 0 30 c0 22 4 28 15 24 8 -4 17 1 21 10 4
11 10 13 18 8 17 -14 44 -10 52 7 6 14 8 14 11 -1 3 -10 9 -18 14 -18z m-101
10 c0 -5 -4 -10 -9 -10 -6 0 -13 5 -16 10 -3 6 1 10 9 10 9 0 16 -4 16 -10z
m140 -89 c0 -5 3 -22 6 -39 6 -28 4 -29 -20 -25 -21 4 -26 11 -28 37 l-1 31
-4 -32 c-2 -18 -8 -33 -14 -33 -5 0 -7 10 -5 23 3 12 5 28 5 35 1 13 61 17 61
3z m-5 -81 c13 0 26 -13 37 -35 l17 -34 -110 -3 c-82 -2 -109 0 -109 10 0 6 6
12 13 13 10 0 10 2 0 6 -23 9 -15 43 10 43 18 0 19 -2 7 -10 -11 -7 -4 -9 25
-9 34 1 36 2 15 9 l-25 7 30 5 c17 3 39 4 50 2 11 -2 29 -4 40 -4z m-78 -96
c-3 -3 -12 -4 -19 -1 -8 3 -5 6 6 6 11 1 17 -2 13 -5z"/>
<path d="M1081 1374 c0 -11 3 -14 6 -6 3 7 2 16 -1 19 -3 4 -6 -2 -5 -13z"/>
<path d="M1104 1199 c-3 -6 -15 -9 -25 -6 -11 3 -19 1 -19 -4 0 -5 29 -9 65
-8 56 2 63 4 53 17 -8 9 -14 10 -16 3 -5 -14 -32 -15 -32 -1 0 13 -17 13 -26
-1z"/>
<path d="M1028 1183 c7 -3 16 -2 19 1 4 3 -2 6 -13 5 -11 0 -14 -3 -6 -6z"/>
<path d="M1850 1720 c0 -5 5 -10 11 -10 5 0 7 5 4 10 -3 6 -8 10 -11 10 -2 0
-4 -4 -4 -10z"/>
<path d="M1891 1721 c-11 -7 -11 -9 0 -14 8 -3 2 -6 -13 -6 -23 -1 -26 -5 -25
-36 1 -29 5 -35 21 -34 12 0 15 3 9 6 -19 7 -16 31 5 35 9 2 29 2 44 0 32 -5
28 -31 -6 -34 -11 -1 4 -4 34 -7 52 -6 55 -5 62 19 6 23 6 22 5 -5 l-2 -30
-87 -3 -88 -3 0 -34 c0 -35 23 -50 33 -22 2 6 8 9 12 5 13 -12 -4 -38 -25 -38
-11 0 -20 -7 -20 -15 0 -9 6 -15 13 -14 27 3 111 -3 100 -8 -7 -2 -13 -9 -13
-15 0 -6 6 -8 14 -5 8 3 17 1 20 -6 4 -7 4 -2 2 11 -3 18 0 22 20 22 19 0 24
-5 25 -27 0 -29 17 -78 18 -55 1 7 15 12 37 12 l35 0 -2 58 -3 57 72 3 c68 3
72 4 62 22 -10 19 -7 20 45 20 42 0 54 3 49 13 -5 8 -2 7 9 -2 14 -11 23 -12
43 -2 39 18 45 14 42 -26 l-3 -38 -82 -3 c-71 -2 -83 -5 -83 -20 0 -9 5 -24
11 -32 8 -12 10 -9 6 13 -2 16 0 27 7 27 6 0 11 -16 11 -37 -1 -38 -1 -38 -50
-44 l-50 -7 50 0 c28 0 79 -1 115 -1 l65 -2 -40 -24 c-22 -14 -49 -25 -60 -25
-18 -1 -18 -2 4 -14 22 -12 16 -14 -62 -13 l-87 1 0 39 c0 24 -4 36 -10 32 -6
-4 -10 -25 -9 -48 l2 -42 68 3 68 4 3 -44 3 -43 63 -3 62 -3 0 -39 c0 -36 3
-40 24 -40 31 0 35 -7 24 -47 l-9 -33 -79 0 -79 0 -4 38 -4 37 -1 -42 c-1 -24
1 -43 6 -44 4 0 37 -1 74 -2 l66 -1 -18 -27 c-37 -51 -126 -69 -350 -69 l-180
0 0 -26 0 -25 253 3 252 3 47 27 c56 34 90 85 96 148 9 94 -44 171 -128 189
-25 5 -55 13 -67 16 -19 6 -23 3 -23 -13 0 -12 -4 -23 -8 -26 -4 -2 -7 11 -7
31 l0 35 53 -4 c43 -4 60 -1 84 16 56 38 73 71 73 140 0 53 -5 69 -28 99 -26
34 -79 75 -63 48 4 -7 -1 -11 -13 -11 -14 0 -19 5 -15 15 15 38 -64 79 -170
90 -53 6 -70 5 -77 -6 -6 -10 -9 -11 -9 -1 0 9 -29 12 -109 12 -122 0 -160
-15 -48 -18 99 -4 98 -12 -1 -12 -66 0 -82 3 -82 15 0 17 -9 19 -29 6z m246
-17 c-3 -3 -12 -4 -19 -1 -8 3 -5 6 6 6 11 1 17 -2 13 -5z m160 -66 c-2 -13
-4 -5 -4 17 -1 22 1 32 4 23 2 -10 2 -28 0 -40z m-130 12 c3 -11 8 -18 12 -16
4 3 13 1 21 -4 9 -6 0 -9 -28 -8 -35 0 -42 3 -37 16 3 8 0 19 -7 24 -9 5 -6 8
10 8 15 0 26 -7 29 -20z m-87 -24 c0 -11 -19 -15 -25 -6 -3 5 1 10 9 10 9 0
16 -2 16 -4z m37 -2 c-3 -3 -12 -4 -19 -1 -8 3 -5 6 6 6 11 1 17 -2 13 -5z
m-67 -75 l0 -29 -65 0 -65 0 0 30 c0 20 5 30 15 30 8 0 15 -9 15 -19 0 -14 6
-19 20 -18 22 1 28 26 8 28 -7 1 1 4 17 8 42 10 55 3 55 -30z m422 6 c3 -16 1
-25 -7 -25 -8 0 -10 9 -7 25 2 14 6 25 7 25 1 0 5 -11 7 -25z m-2 -63 c0 -36
-29 -62 -68 -62 -67 0 -82 9 -82 46 l0 34 75 0 c65 0 75 -2 75 -18z m-27 -229
c-18 -2 -48 -2 -65 0 -18 2 -4 4 32 4 36 0 50 -2 33 -4z m47 -35 c0 -7 3 -23
6 -35 5 -20 2 -23 -21 -23 -23 0 -26 3 -21 23 3 12 6 28 6 35 0 6 7 12 15 12
8 0 15 -6 15 -12z"/>
<path d="M630 1645 c0 -8 4 -15 8 -15 5 0 9 7 9 15 0 8 -4 15 -9 15 -4 0 -8
-7 -8 -15z"/>
<path d="M1516 1645 c4 -8 8 -15 10 -15 2 0 4 7 4 15 0 8 -4 15 -10 15 -5 0
-7 -7 -4 -15z"/>
<path d="M200 1550 c0 -5 5 -10 10 -10 6 0 10 5 10 10 0 6 -4 10 -10 10 -5 0
-10 -4 -10 -10z"/>
<path d="M2280 1549 c0 -5 5 -7 10 -4 6 3 10 8 10 11 0 2 -4 4 -10 4 -5 0 -10
-5 -10 -11z"/>
<path d="M95 1471 c-3 -5 -1 -12 5 -16 5 -3 10 1 10 9 0 18 -6 21 -15 7z"/>
<path d="M140 1470 c0 -6 5 -8 11 -4 6 3 16 0 21 -7 8 -12 9 -11 5 1 -4 18
-37 27 -37 10z"/>
<path d="M985 1469 c-4 -6 -5 -12 -2 -15 2 -3 7 2 10 11 7 17 1 20 -8 4z"/>
<path d="M2011 1464 c0 -11 3 -14 6 -6 3 7 2 16 -1 19 -3 4 -6 -2 -5 -13z"/>
<path d="M1850 1420 c0 -16 33 -26 38 -12 8 26 17 10 17 -32 0 -43 -1 -44 -27
-39 -28 5 -28 5 -28 -46 0 -47 2 -51 24 -51 17 0 26 -7 30 -25 4 -14 4 -31 0
-37 -4 -5 -1 -14 6 -18 8 -5 5 -9 -8 -12 -15 -4 -19 -2 -15 8 3 9 -2 14 -16
14 -14 0 -21 -6 -21 -20 0 -18 7 -20 85 -20 50 0 85 4 85 10 0 6 5 10 10 10 6
0 10 -18 10 -40 l0 -40 128 2 127 2 -123 3 c-92 3 -122 7 -119 16 2 7 18 13
35 15 l32 3 0 66 0 65 73 -2 c92 -3 97 -2 97 11 0 6 -6 9 -12 6 -7 -2 -21 3
-31 11 -12 11 -45 17 -107 20 -80 4 -90 7 -90 23 0 16 8 19 57 19 31 0 54 3
50 6 -3 3 -58 6 -121 5 l-116 0 0 30 c0 21 4 28 13 23 8 -5 8 -2 -2 9 -12 15
-11 17 3 17 9 0 16 -6 16 -12 0 -10 3 -9 9 1 5 8 11 9 15 3 9 -15 44 -11 50 5
4 10 -15 13 -84 13 -55 0 -90 -4 -90 -10z m190 -125 c0 -19 -5 -35 -10 -35 -6
0 -10 16 -8 35 1 19 6 35 10 35 4 0 8 -16 8 -35z m10 -69 c0 -25 -30 -43 -50
-31 -5 3 -10 2 -10 -4 0 -5 15 -12 33 -14 17 -2 2 -5 -35 -5 -40 -1 -68 2 -68
8 0 6 6 10 13 11 10 0 10 2 0 6 -7 2 -13 13 -13 23 0 15 9 20 48 23 26 2 55 4
65 5 12 1 17 -5 17 -22z m-47 -83 c-7 -2 -21 -2 -30 0 -10 3 -4 5 12 5 17 0
24 -2 18 -5z"/>
<path d="M1948 1223 c7 -3 16 -2 19 1 4 3 -2 6 -13 5 -11 0 -14 -3 -6 -6z"/>
<path d="M1988 1223 c7 -3 16 -2 19 1 4 3 -2 6 -13 5 -11 0 -14 -3 -6 -6z"/>
<path d="M1958 1183 c7 -3 16 -2 19 1 4 3 -2 6 -13 5 -11 0 -14 -3 -6 -6z"/>
<path d="M622 1368 l3 -33 67 -3 67 -3 3 -42 c3 -38 6 -42 33 -47 25 -4 31
-10 33 -37 3 -28 0 -32 -25 -35 -15 -2 -58 -2 -95 0 l-68 4 0 34 0 34 55 0
c30 0 55 4 55 10 0 6 -44 10 -110 9 l-110 0 0 -30 c0 -28 1 -29 50 -29 42 0
50 -3 50 -19 0 -20 34 -31 96 -31 33 0 34 -1 34 -39 0 -37 2 -40 33 -43 29 -3
32 -6 35 -39 3 -36 2 -37 -35 -40 -21 -2 -64 -2 -95 -1 l-58 4 0 39 0 40 50
-2 c27 -2 53 0 57 4 3 4 -50 7 -119 7 -92 0 -128 3 -131 13 -4 7 -6 6 -6 -4
-1 -20 25 -32 51 -23 11 3 35 3 54 -1 32 -6 34 -8 34 -45 l0 -40 53 -1 c79 -1
29 -16 -82 -24 -83 -7 -91 -6 -91 10 0 15 7 17 45 13 25 -3 48 -2 51 3 3 5
-48 9 -115 9 l-120 0 -4 38 -4 37 -1 -42 -2 -43 70 0 c60 0 69 -2 63 -16 -5
-14 -17 -16 -76 -10 -38 3 -84 13 -101 20 -17 8 -42 17 -56 21 -24 6 -25 6 -5
-10 69 -57 175 -85 315 -85 94 0 262 20 304 36 14 5 16 31 16 211 l0 204 -101
-5 c-123 -7 -149 -2 -149 30 0 13 -5 24 -11 24 -6 0 -9 -14 -7 -32z m208 -73
c0 -30 -3 -35 -24 -35 -16 0 -26 7 -29 21 -8 31 2 49 29 49 21 0 24 -5 24 -35z
m-2 -178 c3 -33 1 -37 -21 -37 -21 0 -25 6 -29 35 -5 42 -2 46 26 41 16 -2 22
-11 24 -39z"/>
<path d="M1512 1368 l3 -33 67 -3 67 -3 3 -42 c3 -35 7 -42 28 -47 19 -4 26
-13 28 -38 l3 -32 -90 0 -91 0 0 35 0 35 50 0 c28 0 50 5 50 10 0 7 -39 10
-110 9 l-110 -1 0 -29 c0 -28 2 -29 45 -29 38 0 45 3 45 20 0 11 4 20 9 20 4
0 6 -17 4 -39 -4 -38 -4 -38 34 -44 21 -4 53 -7 71 -7 31 0 32 -2 32 -39 0
-36 3 -40 28 -43 23 -3 27 -8 30 -40 3 -36 2 -38 -26 -38 -16 0 -48 -6 -70
-14 -22 -8 -81 -18 -132 -22 -77 -6 -92 -4 -88 7 3 9 21 14 51 14 25 1 49 4
53 8 4 4 -18 7 -49 7 -48 0 -57 -3 -62 -21 -7 -20 -12 -21 -80 -16 -41 3 -88
12 -107 20 -105 46 -113 44 -35 -8 83 -55 156 -69 327 -62 80 4 165 11 190 17
25 5 55 12 68 15 22 5 22 6 22 211 l0 205 -100 -6 c-119 -7 -140 -3 -140 31 0
13 -5 24 -11 24 -6 0 -9 -14 -7 -32z m198 -73 c0 -31 -3 -35 -25 -35 -22 0
-25 4 -25 35 0 31 3 35 25 35 22 0 25 -4 25 -35z m-2 -178 c3 -34 1 -37 -22
-37 -24 0 -26 4 -26 40 0 36 2 40 23 36 17 -2 23 -10 25 -39z"/>
<path d="M2011 1374 c0 -11 3 -14 6 -6 3 7 2 16 -1 19 -3 4 -6 -2 -5 -13z"/>
<path d="M470 1338 c0 -5 6 -8 13 -8 9 0 12 -11 9 -36 -3 -26 -1 -35 7 -30 6
4 11 20 11 37 0 28 1 29 50 29 28 0 50 3 50 8 0 4 -31 7 -70 7 -38 0 -70 -3
-70 -7z"/>
<path d="M1357 1338 c-8 -5 -6 -8 6 -8 13 0 17 -8 17 -36 0 -21 4 -33 10 -29
6 3 10 19 10 36 0 28 1 29 50 29 28 0 50 3 50 8 0 9 -128 9 -143 0z"/>
<path d="M529 1309 c-9 -46 -12 -44 56 -41 68 4 79 16 23 25 -18 3 -43 8 -55
12 -13 4 -23 6 -24 4z"/>
<path d="M1410 1291 c0 -19 5 -21 67 -21 70 0 78 15 13 24 -19 2 -45 8 -57 11
-19 6 -23 3 -23 -14z"/>
<path d="M138 1223 c7 -3 16 -2 19 1 4 3 -2 6 -13 5 -11 0 -14 -3 -6 -6z"/>
<path d="M178 1223 c7 -3 16 -2 19 1 4 3 -2 6 -13 5 -11 0 -14 -3 -6 -6z"/>
<path d="M220 1199 c0 -6 -9 -9 -20 -6 -11 3 -20 1 -20 -4 0 -6 25 -9 55 -8
30 1 55 6 55 11 0 5 -9 7 -19 3 -11 -3 -22 -1 -26 5 -8 13 -25 13 -25 -1z"/>
<path d="M148 1183 c7 -3 16 -2 19 1 4 3 -2 6 -13 5 -11 0 -14 -3 -6 -6z"/>
<path d="M2280 1162 c0 -5 28 -7 63 -5 95 6 100 11 15 12 -43 0 -78 -3 -78 -7z"/>
<path d="M1381 1088 c-1 -20 31 -32 59 -23 11 4 33 4 48 1 23 -6 27 -11 27
-44 l0 -37 45 -1 c39 -1 40 -1 8 3 -37 4 -38 6 -38 43 l0 39 53 4 c28 2 -3 4
-70 5 -86 1 -123 6 -126 15 -3 7 -6 6 -6 -5z"/>
<path d="M173 1073 c9 -2 23 -2 30 0 6 3 -1 5 -18 5 -16 0 -22 -2 -12 -5z"/>
<path d="M1048 1073 c12 -2 30 -2 40 0 9 3 -1 5 -23 4 -22 0 -30 -2 -17 -4z"/>
<path d="M1876 1073 c29 -4 31 -6 30 -46 l-1 -42 128 0 127 -1 -126 3 c-109 3
-125 6 -120 19 3 9 6 26 6 39 0 22 5 24 53 28 28 2 12 3 -38 4 -49 0 -76 -2
-59 -4z"/>
<path d="M1248 1054 c-5 -4 -8 -22 -8 -41 l0 -33 73 2 72 2 -62 3 -62 4 -3 35
c-2 20 -6 32 -10 28z"/>
<path d="M2170 1021 l0 -41 58 2 c56 2 56 2 10 5 -45 4 -48 6 -48 33 0 16 -4
32 -10 35 -6 4 -10 -10 -10 -34z"/>
<path d="M1208 983 c7 -3 16 -2 19 1 4 3 -2 6 -13 5 -11 0 -14 -3 -6 -6z"/>
<path d="M1858 983 c6 -2 18 -2 25 0 6 3 1 5 -13 5 -14 0 -19 -2 -12 -5z"/>
</g>
</svg>
