<?xml version="1.0" encoding="utf-8"?>
<!-- Generator: Adobe Illustrator 16.0.0, SVG Export Plug-In . SVG Version: 6.00 Build 0)  -->
<!DOCTYPE svg PUBLIC "-//W3C//DTD SVG 1.1//EN" "http://www.w3.org/Graphics/SVG/1.1/DTD/svg11.dtd">
<svg version="1.1" id="Layer_1" xmlns="http://www.w3.org/2000/svg" xmlns:xlink="http://www.w3.org/1999/xlink" x="0px" y="0px"
	 width="250px" height="155px" viewBox="0 0 250 155" enable-background="new 0 0 250 155" xml:space="preserve">
<g>
	<path fill="#FFFFFF" d="M29.162,115.698h-3.517V98.348h-0.088l-11.02,13.834L3.605,98.347l-0.088,0v17.351H0V94.479h4.396
		l10.169,12.822L24.78,94.479h4.382V115.698z"/>
	<path fill="#FFFFFF" d="M57.914,115.698h-3.872l-2.074-3.869H39.855l-2.074,3.869H33.91l9.818-18.025h4.367L57.914,115.698z
		 M50.21,108.665l-4.282-7.984l-4.315,7.984H50.21z"/>
	<path fill="#FFFFFF" d="M82.591,102.011l-3.224,1.114c-1.915-1.915-4.445-2.873-7.591-2.873c-2.423,0-4.392,0.594-5.906,1.784
		c-1.515,1.189-2.271,2.709-2.271,4.562c0,1.891,0.748,3.431,2.242,4.621c1.495,1.188,3.473,1.783,5.935,1.783
		c3.185,0,5.734-0.977,7.649-2.931l3.019,1.612c-2.599,2.97-5.989,4.464-10.17,4.484l-0.557,0.88
		c1.563,0.156,2.344,0.898,2.344,2.227c0,0.722-0.288,1.313-0.864,1.773c-0.577,0.458-1.354,0.688-2.33,0.688
		c-0.938,0-1.876-0.186-2.813-0.557l0.557-1.056c0.625,0.235,1.133,0.352,1.524,0.352c0.43,0,0.787-0.114,1.07-0.342
		c0.283-0.229,0.425-0.491,0.425-0.789c0-0.477-0.245-0.715-0.733-0.715c-0.293,0-0.557,0.176-0.792,0.528l-0.908-0.411
		c0.449-0.782,0.918-1.651,1.407-2.608c-3.381-0.353-6.004-1.378-7.87-3.078c-1.866-1.7-2.799-3.85-2.799-6.448
		c0-2.911,1.26-5.285,3.781-7.123c2.188-1.602,4.875-2.403,8.06-2.403C76.191,97.087,79.797,98.729,82.591,102.011z"/>
	<path fill="#FFFFFF" d="M110.375,106.642c0,2.951-1.26,5.354-3.781,7.209c-2.149,1.583-4.836,2.375-8.06,2.375
		c-3.225,0-5.92-0.792-8.089-2.375c-2.521-1.836-3.781-4.239-3.781-7.209c0-2.931,1.27-5.314,3.811-7.152
		c2.228-1.622,4.914-2.432,8.06-2.432c3.125,0,5.803,0.811,8.03,2.432C109.105,101.347,110.375,103.73,110.375,106.642z
		 M106.712,106.627c0-1.86-0.764-3.393-2.29-4.597c-1.527-1.205-3.494-1.807-5.902-1.807c-2.427,0-4.409,0.607-5.945,1.821
		c-1.537,1.215-2.305,2.742-2.305,4.583c0,1.92,0.753,3.472,2.261,4.657c1.507,1.185,3.504,1.777,5.989,1.777
		c2.467,0,4.448-0.592,5.946-1.777S106.712,108.547,106.712,106.627z"/>
	<path fill="#FFFFFF" d="M136.694,115.698h-5.247l-12.25-15.036v15.036h-3.517V97.673h5.24l12.258,15.042V97.673h3.517V115.698z"/>
	<path fill="#FFFFFF" d="M164.097,115.698h-5.246L146.6,100.663v15.036h-3.517V97.673h5.239l12.258,15.042V97.673h3.517V115.698z"/>
	<path fill="#FFFFFF" d="M189.684,115.698h-19.402V97.673h18.728v3.166h-15.211v3.898h10.581v3.166h-10.581v4.631h15.885V115.698z"
		/>
	<path fill="#FFFFFF" d="M215.68,115.698h-4.03l-4.72-6.624h-8.953v6.624h-3.517V97.673h14.566c1.915,0,3.439,0.519,4.573,1.553
		c1.133,1.036,1.699,2.423,1.699,4.163c0,2.989-1.494,4.816-4.484,5.48L215.68,115.698z M208.5,105.91
		c2.129,0,3.194-0.821,3.194-2.462c0-1.739-1.133-2.609-3.399-2.609h-10.317v5.071H208.5z"/>
	<path fill="#FFFFFF" d="M224.414,115.698h-3.517V97.673h3.517V115.698z"/>
	<path fill="#FFFFFF" d="M250,115.698h-19.402V97.673h18.729v3.166h-15.212v3.898h10.581v3.166h-10.581v4.631H250V115.698z"/>
	<path fill="#FFFFFF" d="M174.532,152.43h-4.25v-28.288h4.25V152.43z"/>
	<path fill="#FFFFFF" d="M206.301,152.43h-6.34l-14.804-23.596v23.596h-4.25v-28.288h6.332l14.812,23.608v-23.608h4.25V152.43z"/>
	<path fill="#FFFFFF" d="M239.805,130.949l-3.896,1.748c-2.337-3.004-5.301-4.507-8.89-4.507c-3.093,0-5.561,0.926-7.402,2.776
		c-1.842,1.851-2.762,4.246-2.762,7.182c0,3.029,0.92,5.461,2.762,7.297c1.842,1.835,4.333,2.753,7.473,2.753
		c3.636,0,6.601-1.533,8.891-4.6l3.648,2.53c-3.211,4.691-7.426,7.037-12.644,7.037c-4.345,0-7.857-1.403-10.537-4.208
		c-2.681-2.806-4.021-6.401-4.021-10.786c0-4.569,1.523-8.295,4.569-11.178c2.644-2.514,5.891-3.771,9.739-3.771
		C232.143,123.222,236.5,125.798,239.805,130.949z"/>
	<path fill="#FFFFFF" d="M249.864,152.43h-5.49v-5.013h5.49V152.43z"/>
	<path fill="#FFFFFF" d="M1.683,35.495H0.597c-0.29,2.32-0.463,4.766-0.517,7.34h1.603V35.495z"/>
	<path fill="#FFFFFF" d="M3.535,60.197h25.579c-1.237-2.053-2.178-4.469-2.842-7.178H3.535V60.197z"/>
	<path fill="#FFFFFF" d="M17.281,51.13h8.582c-0.424-2.233-0.679-4.637-0.776-7.178h-7.806V51.13z"/>
	<path fill="#FFFFFF" d="M3.535,42.063h21.509c-0.001-0.164-0.005-0.324-0.005-0.488c0-2.37,0.167-4.604,0.49-6.691H3.535V42.063z"
		/>
	<path fill="#FFFFFF" d="M17.281,69.265h25.565v-1.506c-0.047,0-0.093,0.001-0.14,0.001c-5.399,0-9.443-2.076-12.291-5.674H17.281
		V69.265z"/>
	<path fill="#FFFFFF" d="M70.301,69.265v-7.178H54.293v2.935c-1.932,1.431-5.172,2.446-9.558,2.685v1.558H70.301z"/>
	<path fill="#FFFFFF" d="M52.877,25.816c0.152,0.516,0.27,1.025,0.347,1.516h17.076v-1.516H52.877z"/>
	<path fill="#FFFFFF" d="M17.281,32.995h8.587c0.57-2.708,1.433-5.117,2.571-7.179H17.281V32.995z"/>
	<path fill="#FFFFFF" d="M56.587,16.749H30.983v5.528c2.698-2.873,6.275-4.477,10.655-4.477c3.944,0,6.656,1.315,8.464,3.177
		c0.864,0.89,1.535,1.906,2.041,2.95h4.444V16.749z"/>
	<rect x="58.476" y="53.019" fill="#FFFFFF" width="20.798" height="7.178"/>
	<path fill="#FFFFFF" d="M72.19,27.332h7.083c-0.01-0.515-0.034-1.019-0.064-1.516h-7.02V27.332z"/>
	<rect x="72.19" y="62.086" fill="#FFFFFF" width="7.083" height="7.178"/>
	<rect x="72.19" y="43.952" fill="#FFFFFF" width="7.083" height="7.178"/>
	<rect x="58.476" y="36.316" fill="#FFFFFF" width="20.798" height="5.747"/>
	<rect x="54.293" y="53.019" fill="#FFFFFF" width="2.294" height="7.178"/>
	<rect x="39.831" y="43.952" fill="#FFFFFF" width="3.016" height="7.178"/>
	<rect x="39.831" y="36.316" fill="#FFFFFF" width="16.756" height="5.747"/>
	<path fill="#FFFFFF" d="M42.847,80.222H17.864c5.491,2.699,12.469,4.192,21.227,4.192c1.232,0,2.486-0.024,3.756-0.072V80.222z"/>
	<path fill="#FFFFFF" d="M29.095,71.154H7.092c1.987,2.785,4.45,5.201,7.458,7.178h14.544V71.154z"/>
	<rect x="44.735" y="43.952" fill="#FFFFFF" width="25.565" height="7.178"/>
	<path fill="#FFFFFF" d="M15.392,62.086H2.6c0.844,2.573,1.916,4.976,3.248,7.178h9.545V62.086z"/>
	<path fill="#FFFFFF" d="M0.625,54.037c0.258,2.01,0.607,3.954,1.059,5.825v-5.825H0.625z"/>
	<path fill="#FFFFFF" d="M58.476,23.927h20.566c-0.314-2.665-0.934-5.05-1.833-7.178H58.476V23.927z"/>
	<path fill="#FFFFFF" d="M58.476,78.333h19.902c0.3-0.09,0.6-0.181,0.896-0.272v-6.906H58.476V78.333z"/>
	<path fill="#FFFFFF" d="M15.392,43.952H0.06c0.005,2.464,0.113,4.862,0.338,7.178h14.994V43.952z"/>
	<rect x="17.281" y="7.682" fill="#FFFFFF" width="25.565" height="7.178"/>
	<rect x="30.983" y="71.154" fill="#FFFFFF" width="25.604" height="7.178"/>
	<path fill="#FFFFFF" d="M57.857,5.75V2.284C53.317,1.391,48.261,1,42.825,1c-3.956,0-7.675,0.292-11.146,0.885V5.75H57.857z"/>
	<path fill="#FFFFFF" d="M44.735,14.86h25.565V7.98c-0.136-0.102-0.275-0.2-0.414-0.299H44.735V14.86z"/>
	<path fill="#FFFFFF" d="M76.302,14.86c-1.095-2.024-2.478-3.783-4.112-5.305v5.305H76.302z"/>
	<path fill="#FFFFFF" d="M15.392,7.917c-2.818,1.896-5.279,4.202-7.355,6.942h7.355V7.917z"/>
	<path fill="#FFFFFF" d="M29.095,23.927v-7.178H6.715c-1.223,1.883-2.285,3.944-3.18,6.191v0.987H29.095z"/>
	<path fill="#FFFFFF" d="M29.748,2.25c-3.75,0.785-7.185,1.946-10.282,3.5h10.282V2.25z"/>
	<path fill="#FFFFFF" d="M15.392,25.816H2.512c-0.703,2.23-1.257,4.623-1.661,7.179h14.542V25.816z"/>
	<path fill="#FFFFFF" d="M68.274,5.75c-2.525-1.306-5.369-2.309-8.485-3.048V5.75H68.274z"/>
	<path fill="#FFFFFF" d="M44.735,80.222v4.033c8.43-0.454,17.437-1.857,25.565-3.769v-0.264H44.735z"/>
	<path fill="#FFFFFF" d="M44.735,51.13v-7.178h25.565v7.178H44.735z M17.281,14.86V7.682h25.565v7.178H17.281z M30.983,78.333
		v-7.178h25.604v7.178H30.983z"/>
	<path fill="#FFFFFF" d="M91.624,34.884h-1.062c-0.283,2.269-0.453,4.661-0.505,7.179h1.567V34.884z"/>
	<path fill="#FFFFFF" d="M93.513,60.197h25.579c-1.237-2.053-2.178-4.469-2.842-7.178H93.513V60.197z"/>
	<path fill="#FFFFFF" d="M107.259,51.13h8.582c-0.424-2.233-0.679-4.637-0.775-7.178h-7.806V51.13z"/>
	<path fill="#FFFFFF" d="M93.513,42.063h21.51c-0.001-0.164-0.005-0.324-0.005-0.488c0-2.37,0.167-4.604,0.489-6.691H93.513V42.063z
		"/>
	<path fill="#FFFFFF" d="M107.259,69.265h25.566v-1.506c-0.047,0-0.093,0.001-0.14,0.001c-5.399,0-9.443-2.076-12.292-5.674h-13.134
		V69.265z"/>
	<path fill="#FFFFFF" d="M160.279,69.265v-7.178h-16.008v2.935c-1.932,1.431-5.172,2.446-9.558,2.685v1.558H160.279z"/>
	<path fill="#FFFFFF" d="M142.855,25.816c0.153,0.516,0.27,1.025,0.347,1.516h17.077v-1.516H142.855z"/>
	<path fill="#FFFFFF" d="M107.259,32.995h8.588c0.57-2.708,1.433-5.117,2.57-7.179h-11.158V32.995z"/>
	<path fill="#FFFFFF" d="M146.565,16.749h-25.603v5.528c2.698-2.873,6.275-4.477,10.655-4.477c3.945,0,6.656,1.315,8.464,3.177
		c0.863,0.89,1.534,1.906,2.042,2.95h4.443V16.749z"/>
	<rect x="148.454" y="53.019" fill="#FFFFFF" width="20.798" height="7.178"/>
	<path fill="#FFFFFF" d="M162.168,27.332h7.083c-0.01-0.515-0.034-1.019-0.064-1.516h-7.019V27.332z"/>
	<rect x="162.168" y="62.086" fill="#FFFFFF" width="7.083" height="7.178"/>
	<rect x="162.168" y="43.952" fill="#FFFFFF" width="7.083" height="7.178"/>
	<rect x="148.454" y="36.316" fill="#FFFFFF" width="20.798" height="5.747"/>
	<rect x="144.271" y="53.019" fill="#FFFFFF" width="2.293" height="7.178"/>
	<rect x="129.809" y="43.952" fill="#FFFFFF" width="3.016" height="7.178"/>
	<rect x="129.809" y="36.316" fill="#FFFFFF" width="16.756" height="5.747"/>
	<path fill="#FFFFFF" d="M132.825,80.222h-24.983c5.491,2.699,12.469,4.192,21.227,4.192c1.232,0,2.486-0.024,3.756-0.072V80.222z"
		/>
	<path fill="#FFFFFF" d="M119.073,71.154H97.07c1.987,2.785,4.45,5.201,7.458,7.178h14.544V71.154z"/>
	<rect x="134.714" y="43.952" fill="#FFFFFF" width="25.565" height="7.178"/>
	<path fill="#FFFFFF" d="M105.371,62.086H92.578c0.844,2.573,1.916,4.976,3.248,7.178h9.545V62.086z"/>
	<path fill="#FFFFFF" d="M90.589,53.019c0.251,1.966,0.594,3.867,1.035,5.698v-5.698H90.589z"/>
	<path fill="#FFFFFF" d="M148.454,23.927h20.566c-0.314-2.665-0.934-5.05-1.833-7.178h-18.733V23.927z"/>
	<path fill="#FFFFFF" d="M148.454,78.333h19.902c0.301-0.09,0.601-0.181,0.896-0.272v-6.906h-20.798V78.333z"/>
	<path fill="#FFFFFF" d="M105.371,43.952H90.038c0.005,2.464,0.113,4.862,0.338,7.178h14.994V43.952z"/>
	<rect x="107.259" y="7.682" fill="#FFFFFF" width="25.566" height="7.178"/>
	<rect x="120.962" y="71.154" fill="#FFFFFF" width="25.603" height="7.178"/>
	<path fill="#FFFFFF" d="M149.855,5.75V2.284C145.316,1.391,140.26,1,134.824,1c-3.956,0-7.676,0.292-11.146,0.885V5.75H149.855z"/>
	<path fill="#FFFFFF" d="M134.714,14.86h25.565V7.98c-0.136-0.102-0.275-0.2-0.413-0.299h-25.152V14.86z"/>
	<path fill="#FFFFFF" d="M166.281,14.86c-1.095-2.024-2.477-3.783-4.112-5.305v5.305H166.281z"/>
	<path fill="#FFFFFF" d="M105.371,7.917c-2.818,1.896-5.279,4.202-7.355,6.942h7.355V7.917z"/>
	<path fill="#FFFFFF" d="M119.073,23.927v-7.178H96.693c-1.223,1.883-2.285,3.944-3.18,6.191v0.987H119.073z"/>
	<path fill="#FFFFFF" d="M121.746,2.25c-3.749,0.785-7.185,1.946-10.282,3.5h10.282V2.25z"/>
	<path fill="#FFFFFF" d="M105.371,25.816H92.49c-0.702,2.23-1.257,4.623-1.661,7.179h14.542V25.816z"/>
	<path fill="#FFFFFF" d="M160.273,5.75c-2.525-1.306-5.37-2.309-8.486-3.048V5.75H160.273z"/>
	<path fill="#FFFFFF" d="M134.714,80.222v4.033c8.429-0.454,17.437-1.857,25.565-3.769v-0.264H134.714z"/>
	<path fill="#FFFFFF" d="M134.714,51.13v-7.178h25.565v7.178H134.714z M107.259,14.86V7.682h25.566v7.178H107.259z M120.962,78.333
		v-7.178h25.603v7.178H120.962z"/>
	<polygon fill="#FFFFFF" points="187.753,23.944 206.32,23.944 206.32,18 213.314,18 213.314,16.764 187.753,16.764 	"/>
	<rect x="201.499" y="25.832" fill="#FFFFFF" width="4.821" height="7.18"/>
	<path fill="#FFFFFF" d="M201.499,51.146h4.821v-1.811h7.396c3.833,0,6.577,0.585,8.446,1.811h4.903v-7.18h-25.567V51.146z"/>
	<path fill="#FFFFFF" d="M240.806,16.764h-25.604v1.285c5.255,0.325,7.277,2.368,7.854,5.896h17.75V16.764z"/>
	<rect x="201.499" y="7.696" fill="#FFFFFF" width="25.567" height="7.18"/>
	<polygon fill="#FFFFFF" points="187.753,42.078 213.314,42.078 213.314,35.311 206.32,35.311 206.32,34.898 187.753,34.898 	"/>
	<rect x="187.753" y="53.033" fill="#FFFFFF" width="18.567" height="7.18"/>
	<path fill="#FFFFFF" d="M223.249,26.656c0,2.663-0.592,4.847-2.112,6.355h5.93v-7.18h-3.833
		C223.242,26.101,223.249,26.374,223.249,26.656z"/>
	<path fill="#FFFFFF" d="M240.806,60.213v-7.18h-16.737c0.97,1.475,1.398,3.407,1.398,5.833c0,0.468-0.018,0.916-0.05,1.347H240.806
		z"/>
	<path fill="#FFFFFF" d="M242.693,23.944h4.713c0-0.01,0-0.019,0-0.027c0-2.625-0.296-5.01-0.901-7.153h-3.812V23.944z"/>
	<path fill="#FFFFFF" d="M228.953,51.146h18.637c-1.834-3.496-4.588-5.81-7.737-7.18h-10.9V51.146z"/>
	<path fill="#FFFFFF" d="M228.953,14.875h16.915c-1.177-2.941-3.052-5.341-5.691-7.18h-11.223V14.875z"/>
	<path fill="#FFFFFF" d="M242.693,71.169v7.179h0.831c0.723-0.61,1.4-1.294,2.075-2.06c1.165-1.311,2.151-3.053,2.89-5.119H242.693z
		"/>
	<path fill="#FFFFFF" d="M215.202,35.257v6.821h18.721c2.539-0.854,4.885-1.985,6.884-3.505v-3.675h-23.265
		C216.84,35.072,216.062,35.193,215.202,35.257z"/>
	<rect x="181.339" y="7.696" fill="#FFFFFF" width="18.272" height="7.18"/>
	<rect x="181.339" y="62.101" fill="#FFFFFF" width="18.272" height="7.18"/>
	<rect x="191.968" y="3.221" fill="#FFFFFF" width="26.135" height="2.545"/>
	<rect x="181.339" y="71.169" fill="#FFFFFF" width="4.526" height="7.179"/>
	<path fill="#FFFFFF" d="M220.033,5.766h22.036c-3.912-1.681-8.951-2.545-15.237-2.545h-6.799V5.766z"/>
	<path fill="#FFFFFF" d="M228.953,25.832v7.18h16.518c1.01-2.014,1.665-4.383,1.868-7.18H228.953z"/>
	<path fill="#FFFFFF" d="M244.351,34.898h-1.657v2.006C243.294,36.287,243.85,35.621,244.351,34.898z"/>
	<path fill="#FFFFFF" d="M242.693,53.033v7.18h7.204c-0.157-2.752-0.666-5.135-1.454-7.18H242.693z"/>
	<rect x="181.339" y="16.764" fill="#FFFFFF" width="4.526" height="7.18"/>
	<path fill="#FFFFFF" d="M228.953,62.101v7.18h20.116c0.563-2.154,0.879-4.577,0.884-7.18H228.953z"/>
	<rect x="185.411" y="3.221" fill="#FFFFFF" width="4.628" height="2.545"/>
	<rect x="181.339" y="80.236" fill="#FFFFFF" width="18.272" height="2.188"/>
	<path fill="#FFFFFF" d="M227.066,80.236h-25.567v2.188h23.557c0.698,0,1.364-0.007,2.01-0.017V80.236z"/>
	<rect x="181.339" y="43.966" fill="#FFFFFF" width="18.272" height="7.18"/>
	<rect x="181.339" y="34.898" fill="#FFFFFF" width="4.526" height="7.18"/>
	<rect x="181.339" y="53.033" fill="#FFFFFF" width="4.526" height="7.18"/>
	<rect x="181.339" y="25.832" fill="#FFFFFF" width="18.272" height="7.18"/>
	<rect x="187.753" y="71.169" fill="#FFFFFF" width="25.561" height="7.179"/>
	<path fill="#FFFFFF" d="M240.609,80.236h-11.656v2.122C234.484,82.158,237.988,81.489,240.609,80.236z"/>
	<rect x="215.202" y="71.169" fill="#FFFFFF" width="25.604" height="7.179"/>
	<path fill="#FFFFFF" d="M227.066,62.101h-1.926c-0.995,4.317-4.367,6.298-11.424,6.298h-7.396v-6.298h-4.821v7.18h25.567V62.101z"
		/>
</g>
</svg>
