<?xml version="1.0" encoding="utf-8"?>
<!-- Generator: Adobe Illustrator 16.0.0, SVG Export Plug-In . SVG Version: 6.00 Build 0)  -->
<!DOCTYPE svg PUBLIC "-//W3C//DTD SVG 1.1//EN" "http://www.w3.org/Graphics/SVG/1.1/DTD/svg11.dtd">
<svg version="1.1" id="Layer_1" xmlns="http://www.w3.org/2000/svg" xmlns:xlink="http://www.w3.org/1999/xlink" x="0px" y="0px"
	 width="152px" height="152px" viewBox="344 0 152 152" enable-background="new 344 0 152 152" xml:space="preserve">
<rect x="344" fill="#F7DF1E" width="152" height="152"/>
<path d="M446.105,118.75c3.062,5,7.045,8.674,14.09,8.674c5.919,0,9.699-2.957,9.699-7.045c0-4.897-3.885-6.633-10.398-9.481
	l-3.571-1.532c-10.307-4.391-17.154-9.893-17.154-21.521c0-10.713,8.162-18.867,20.918-18.867c9.082,0,15.61,3.161,20.315,11.437
	l-11.123,7.142c-2.448-4.392-5.091-6.121-9.192-6.121c-4.184,0-6.835,2.654-6.835,6.121c0,4.285,2.654,6.02,8.782,8.674l3.571,1.529
	c12.136,5.204,18.987,10.51,18.987,22.438c0,12.86-10.102,19.905-23.668,19.905c-13.266,0-21.835-6.321-26.028-14.606
	L446.105,118.75z M395.648,119.988c2.244,3.98,4.285,7.347,9.192,7.347c4.693,0,7.653-1.836,7.653-8.976V69.792h14.283v48.761
	c0,14.79-8.671,21.521-21.328,21.521c-11.437,0-18.059-5.918-21.427-13.047L395.648,119.988z"/>
</svg>
